<svg width="13" height="13" viewBox="0 0 13 13" fill="none" xmlns="http://www.w3.org/2000/svg">
<path d="M12.0583 8.41174C12.0904 8.30899 12.1078 8.19976 12.1078 8.08656V6.49997H12.7451V5.73527H12.1078V4.97056H11.5227L12.0057 3.44115H12.4902V2.67644H11.4453L10.7208 4.97056H8.68864C8.32986 4.28735 7.73184 3.74609 6.99239 3.46302C7.24057 3.19104 7.39216 2.82946 7.39216 2.43314V1.91174C7.39216 1.06842 6.70606 0.382324 5.86275 0.382324C5.01943 0.382324 4.33333 1.06842 4.33333 1.91174V2.43314C4.33333 2.84297 4.49568 3.21536 4.75905 3.49022C3.64247 3.96518 2.83048 5.04953 2.67915 6.32756L2.67647 6.34996V6.49997H0.764706V7.83821C0.764706 8.04335 0.811226 8.23779 0.894094 8.41174H0V12.6176H13V8.41174H12.0583ZM9.04902 5.73527H11.3431V8.08656C11.3431 8.26588 11.1973 8.41174 11.0179 8.41174H9.37422C9.1949 8.41174 9.04902 8.26586 9.04902 8.08656V5.73527ZM5.09804 1.91174C5.09804 1.49008 5.44109 1.14703 5.86275 1.14703C6.2844 1.14703 6.62745 1.49008 6.62745 1.91174V2.43314C6.62745 2.8548 6.2844 3.19784 5.86275 3.19784C5.44109 3.19784 5.09804 2.8548 5.09804 2.43314V1.91174ZM3.44118 6.39579C3.58405 5.2624 4.38082 4.3291 5.42979 4.06961L5.86254 3.96255H5.86277C5.88324 3.96255 5.90355 3.96181 5.92382 3.96099L6.42817 4.08577C7.27437 4.2951 7.92949 4.92883 8.18108 5.73527H7.64706V6.49997H8.28431V8.08656C8.28431 8.19979 8.3017 8.30901 8.33389 8.41174H6.75296C6.83583 8.23779 6.88235 8.04335 6.88235 7.83821V6.49997H4.20588V7.83821C4.20588 8.04335 4.2524 8.23779 4.33527 8.41174H3.31179C3.39466 8.23779 3.44118 8.04335 3.44118 7.83821V6.39579ZM4.97059 7.83821V7.26468H6.11765V7.83821C6.11765 8.15446 5.86035 8.41174 5.54412 8.41174C5.22789 8.41174 4.97059 8.15446 4.97059 7.83821ZM1.52941 7.83821V7.26468H2.67647V7.83821C2.67647 8.15446 2.41917 8.41174 2.10294 8.41174C1.78671 8.41174 1.52941 8.15446 1.52941 7.83821ZM12.2353 11.8529H0.764706V9.17644H12.2353V11.8529Z" fill="#787878"/>
</svg>
