<svg width="13" height="13" viewBox="0 0 13 13" fill="none" xmlns="http://www.w3.org/2000/svg">
<path d="M7.36887 9.15907C7.23597 9.17146 7.10254 9.14148 6.98773 9.07338C6.90384 8.98725 6.86362 8.86769 6.87842 8.74838C6.88152 8.64905 6.89337 8.55018 6.91387 8.45293C6.9337 8.34137 6.95931 8.23092 6.99067 8.12202L7.33931 6.92246C7.37526 6.80407 7.39903 6.68229 7.41023 6.55905C7.41023 6.4261 7.42795 6.33449 7.42795 6.28132C7.43536 6.04435 7.33418 5.81696 7.15317 5.66382C6.93052 5.49289 6.65326 5.40888 6.37317 5.42746C6.17246 5.43049 5.9733 5.46334 5.78226 5.52496C5.57347 5.58996 5.35384 5.66776 5.12339 5.75838L5.02295 6.14838C5.09089 6.12474 5.17364 6.09816 5.26817 6.0686C5.35836 6.04189 5.45185 6.02795 5.54589 6.02724C5.67782 6.01295 5.81062 6.04534 5.92112 6.11883C5.99617 6.20838 6.03139 6.32472 6.01862 6.44088C6.01829 6.54023 6.00739 6.63928 5.98612 6.73633C5.96542 6.83974 5.93884 6.94905 5.90634 7.06427L5.55476 8.26972C5.52642 8.38176 5.50375 8.49516 5.48681 8.60949C5.473 8.70737 5.46609 8.80609 5.46612 8.90494C5.46467 9.14353 5.57377 9.36936 5.76156 9.51652C5.98764 9.69012 6.26887 9.77617 6.55337 9.7588C6.7537 9.76291 6.95335 9.73397 7.14429 9.67311C7.31171 9.61598 7.53528 9.53424 7.81498 9.42788L7.90953 9.05561C7.83377 9.08704 7.75574 9.11271 7.67612 9.13241C7.57542 9.15542 7.47203 9.16435 7.36887 9.15907Z" fill="black"/>
<path d="M7.73788 3.47161C7.57708 3.32394 7.36522 3.24449 7.14697 3.25003C6.92884 3.2451 6.71718 3.32447 6.55605 3.47161C6.26071 3.72628 6.22772 4.17216 6.48242 4.46753C6.50512 4.49386 6.52972 4.51847 6.55605 4.54117C6.89253 4.84212 7.40141 4.84212 7.73786 4.54117C8.0332 4.28398 8.06415 3.83609 7.80697 3.54075C7.78559 3.51615 7.76249 3.49304 7.73788 3.47161Z" fill="black"/>
<path d="M6.5 0C2.91015 0 0 2.91015 0 6.5C0 10.0899 2.91015 13 6.5 13C10.0899 13 13 10.0899 13 6.5C13 2.91015 10.0899 0 6.5 0ZM6.5 12.4091C3.23649 12.4091 0.590916 9.76351 0.590916 6.5C0.590916 3.23649 3.23649 0.590916 6.5 0.590916C9.76351 0.590916 12.4091 3.23649 12.4091 6.5C12.4091 9.76351 9.76351 12.4091 6.5 12.4091Z" fill="black"/>
</svg>
