<svg width="13" height="11" viewBox="0 0 13 11" fill="none" xmlns="http://www.w3.org/2000/svg">
<path d="M4.51953 0.995117C5.7046 0.995117 6.66992 1.95909 6.66992 3.14551C6.6699 3.22947 6.66452 3.31462 6.65527 3.39648L6.63965 3.50879C6.61969 3.6232 6.58978 3.73585 6.55273 3.8457V3.84668C6.50176 3.99448 6.41115 4.16912 6.28125 4.375L6.13867 4.5918C5.60369 5.37123 4.76887 6.28405 4.73535 6.32129H4.73438L4.59375 6.47559L4.51953 6.55566L4.44629 6.47559L4.30469 6.32129V6.32031C4.25173 6.2631 3.43058 5.36154 2.90137 4.5918C2.69319 4.2891 2.55632 4.04555 2.48828 3.84863L2.4375 3.67969C2.42321 3.62318 2.41127 3.56621 2.40137 3.50879V3.50781C2.38152 3.38867 2.37112 3.26789 2.37109 3.14551C2.37109 3.03915 2.37855 2.93216 2.39453 2.82812L2.43066 2.64062C2.53463 2.20939 2.77175 1.81798 3.11035 1.52344C3.49935 1.1824 4.00037 0.995164 4.51953 0.995117ZM4.51953 1.5752C3.74765 1.57529 3.08082 2.15145 2.96875 2.91211C2.95798 2.98892 2.95118 3.06642 2.95117 3.14355C2.95117 3.18867 2.95329 3.23382 2.95703 3.27832L2.97461 3.40918V3.41016C2.98892 3.49353 3.00967 3.57727 3.03711 3.65723C3.08458 3.7937 3.19776 3.99498 3.38086 4.2627L3.69629 4.69336C3.99141 5.07717 4.31377 5.45289 4.52051 5.6875C4.80482 5.36321 5.31014 4.77312 5.66113 4.2627L5.78613 4.07422C5.89746 3.89858 5.9694 3.75902 6.00391 3.65723H6.00488C6.03242 3.577 6.05312 3.49453 6.06738 3.41016L6.06836 3.40918C6.07294 3.38397 6.07613 3.35708 6.08008 3.32812C6.08705 3.26814 6.0908 3.20686 6.09082 3.14551C6.08963 2.28019 5.38469 1.5752 4.51953 1.5752Z" fill="#787878" stroke="#787878" stroke-width="0.2"/>
<path d="M2.93213 3.16858L2.9458 3.25159L2.97314 3.40979L2.99951 3.53479C3.01008 3.57602 3.02195 3.61694 3.03564 3.65686L3.0835 3.77112C3.14372 3.89783 3.24113 4.06154 3.37842 4.26233C3.72908 4.77229 4.23316 5.36378 4.51807 5.68713C4.80234 5.36289 5.30858 4.7729 5.65967 4.26233C5.8428 3.99581 5.95632 3.79365 6.00244 3.65784L6.00342 3.65686C6.0309 3.57674 6.05168 3.49405 6.06592 3.40979L6.09326 3.25159L6.10693 3.16858H7.2124C7.65617 3.16868 8.00244 3.52335 8.00244 3.96936V9.16956H4.40479L4.40283 9.07092L4.40088 8.88342C4.39767 8.59178 4.15765 8.3551 3.86572 8.3551C3.57393 8.3551 3.33377 8.59291 3.33057 8.88342L3.32861 9.07092L3.32666 9.16956H1.89014C1.68141 9.16951 1.4733 9.08961 1.31885 8.9469C1.15481 8.79581 1.06212 8.59311 1.06201 8.37463V3.96936C1.06201 3.53097 1.44388 3.16868 1.89014 3.16858H2.93213ZM1.89014 3.75061C1.75213 3.75072 1.64209 3.86315 1.64209 3.97034V8.37561C1.64216 8.47877 1.75058 8.59035 1.89014 8.59045H2.79443C2.84591 8.40577 2.94148 8.23504 3.08154 8.09729C3.29189 7.88972 3.57139 7.7751 3.8667 7.77502C4.16207 7.77502 4.44145 7.88973 4.65186 8.09729C4.79069 8.23491 4.88648 8.40475 4.93799 8.58948H7.42236V3.97034C7.42236 3.84243 7.32812 3.75071 7.2124 3.75061H6.58057C6.57098 3.78303 6.56256 3.81566 6.55127 3.84729C6.48326 4.04422 6.34518 4.289 6.13721 4.59143C5.60322 5.36942 4.77031 6.28051 4.73389 6.32092H4.73291L4.59326 6.47522L4.52002 6.55627L4.4458 6.47522L4.30518 6.3219C4.26391 6.27754 3.4342 5.36718 2.90088 4.59143C2.74457 4.36414 2.62818 4.17039 2.55127 4.00452L2.48779 3.84827C2.47656 3.81606 2.46809 3.7832 2.4585 3.75061H1.89014Z" fill="#787878" stroke="#787878" stroke-width="0.2"/>
<path d="M9.37402 8.35449C9.08234 8.35449 8.84224 8.59245 8.83887 8.88281V8.88965C8.83887 9.18481 9.07886 9.4248 9.37402 9.4248C9.66919 9.4248 9.90918 9.18481 9.90918 8.88965V8.88281L9.89648 8.77734C9.84454 8.53711 9.62942 8.35449 9.37402 8.35449ZM10.4893 8.88965C10.4893 9.50474 9.98912 10.0049 9.37402 10.0049C8.75893 10.0049 8.25879 9.50474 8.25879 8.88965V8.87402C8.26303 8.58016 8.38004 8.30419 8.58887 8.09668V8.0957C8.79928 7.88814 9.07866 7.77441 9.37402 7.77441C9.66939 7.77441 9.94877 7.88814 10.1592 8.0957V8.09668C10.368 8.30419 10.485 8.58016 10.4893 8.87402V8.88965Z" fill="#787878" stroke="#787878" stroke-width="0.2"/>
<path d="M8.00293 8.58948H8.30273C8.35417 8.40475 8.44979 8.2341 8.58984 8.09631L8.67188 8.02307C8.87032 7.86188 9.11641 7.77411 9.375 7.77405C9.67042 7.77405 9.94974 7.88868 10.1602 8.09631H10.1611C10.2997 8.23487 10.3948 8.40475 10.4463 8.58948H11.3574V6.47229L9.93164 4.68811H8.00293V8.58948ZM11.9365 9.06995H11.8379V9.16956H9.91309L9.91113 9.07092L9.90918 8.88342C9.90597 8.59178 9.66595 8.3551 9.37402 8.3551C9.08223 8.3551 8.84207 8.59291 8.83887 8.88342L8.83691 9.07092L8.83496 9.16956H7.4209V4.10803H10.2109L10.2402 4.14514L11.915 6.24084L11.9365 6.26819V9.06995Z" fill="#787878" stroke="#787878" stroke-width="0.2"/>
<path d="M3.86719 8.35449C3.5755 8.35449 3.33541 8.59245 3.33203 8.88281V8.88965C3.33203 9.18481 3.57203 9.4248 3.86719 9.4248C4.16235 9.4248 4.40234 9.18481 4.40234 8.88965V8.88281L4.38965 8.77734C4.33749 8.53718 4.12158 8.35449 3.86719 8.35449ZM4.98242 8.88965C4.98242 9.50474 4.48228 10.0049 3.86719 10.0049C3.2521 10.0049 2.75195 9.50474 2.75195 8.88965V8.87402C2.75619 8.58016 2.8732 8.30419 3.08203 8.09668V8.0957C3.29244 7.88814 3.57182 7.77441 3.86719 7.77441C4.16255 7.77441 4.44194 7.88814 4.65234 8.0957V8.09668C4.86117 8.30419 4.97818 8.58016 4.98242 8.87402V8.88965Z" fill="#787878" stroke="#787878" stroke-width="0.2"/>
<path d="M11.7412 6.08594V6.66602H8.72363V6.08594H11.7412Z" fill="#787878" stroke="#787878" stroke-width="0.2"/>
<path d="M4.51953 2.3916C4.93385 2.3916 5.27236 2.72774 5.27246 3.14355C5.27246 3.55946 4.93391 3.89648 4.51953 3.89648C4.10524 3.89638 3.76758 3.55939 3.76758 3.14355C3.76768 2.72933 4.10378 2.39171 4.51953 2.3916ZM4.51953 2.97363C4.42504 2.97374 4.34766 3.051 4.34766 3.14551C4.34792 3.2398 4.42521 3.3163 4.51953 3.31641C4.61394 3.31641 4.69114 3.23986 4.69141 3.14551C4.69141 3.05093 4.61411 2.97363 4.51953 2.97363Z" fill="#787878" stroke="#787878" stroke-width="0.2"/>
</svg>
