<svg width="13" height="13" viewBox="0 0 13 13" fill="none" xmlns="http://www.w3.org/2000/svg">
<path d="M11.9168 5.01046C11.8095 5.01186 11.707 5.05511 11.6311 5.131C11.5552 5.20688 11.5119 5.3094 11.5105 5.41671V8.66671L9.24638 6.07754C9.10252 5.92439 8.92882 5.80234 8.73598 5.7189C8.54313 5.63547 8.33525 5.59242 8.12513 5.59242C7.91501 5.59242 7.70712 5.63547 7.51428 5.7189C7.32144 5.80234 7.14773 5.92439 7.00388 6.07754L5.4493 7.85421L4.94013 7.23671C4.79982 7.0684 4.62424 6.93299 4.4258 6.84006C4.22736 6.74714 4.01091 6.69897 3.7918 6.69897C3.57268 6.69897 3.35623 6.74714 3.15779 6.84006C2.95935 6.93299 2.78377 7.0684 2.64346 7.23671L1.48971 8.62879V3.25004C1.49114 2.78359 1.67707 2.33665 2.0069 2.00682C2.33674 1.67698 2.78368 1.49105 3.25013 1.48962H7.58346C7.69121 1.48962 7.79454 1.44682 7.87072 1.37064C7.94691 1.29445 7.98971 1.19112 7.98971 1.08337C7.98971 0.97563 7.94691 0.872299 7.87072 0.796112C7.79454 0.719925 7.69121 0.677124 7.58346 0.677124H3.25013C2.56775 0.677124 1.91332 0.948198 1.4308 1.43071C0.948286 1.91323 0.677212 2.56766 0.677212 3.25004V9.75004C0.674653 9.75889 0.674653 9.76828 0.677212 9.77712C0.684345 10.4548 0.958566 11.1023 1.44031 11.579C1.92205 12.0556 2.57241 12.323 3.25013 12.323H9.75013C10.4251 12.3216 11.0724 12.0551 11.5527 11.5809C12.033 11.1067 12.3077 10.4628 12.3176 9.78796V5.41671C12.3163 5.31032 12.2738 5.20859 12.199 5.13285C12.1243 5.05711 12.0232 5.01325 11.9168 5.01046ZM9.75013 11.5105H3.25013C2.80765 11.509 2.38193 11.3411 2.05772 11.0399C1.7335 10.7388 1.53458 10.3266 1.50054 9.88546L3.25013 7.75671C3.31566 7.6837 3.39583 7.62531 3.48542 7.58533C3.57502 7.54536 3.67202 7.5247 3.77013 7.5247C3.86823 7.5247 3.96524 7.54536 4.05483 7.58533C4.14443 7.62531 4.2246 7.6837 4.29013 7.75671L5.10805 8.74254C5.14556 8.78816 5.19268 8.82492 5.24606 8.85021C5.29943 8.87549 5.35774 8.88866 5.4168 8.88879C5.53376 8.88234 5.644 8.83205 5.72554 8.74796L7.58888 6.61379C7.65517 6.54397 7.73498 6.48837 7.82344 6.45038C7.91191 6.41238 8.00718 6.39279 8.10346 6.39279C8.19974 6.39279 8.29501 6.41238 8.38348 6.45038C8.47194 6.48837 8.55175 6.54397 8.61804 6.61379L11.4726 9.86379C11.4454 10.3047 11.253 10.7191 10.9337 11.0243C10.6144 11.3295 10.1918 11.5031 9.75013 11.5105Z" fill="black"/>
<path d="M2.30225 3.79171C2.30225 4.08632 2.38961 4.37431 2.55329 4.61928C2.71696 4.86424 2.9496 5.05516 3.22179 5.1679C3.49398 5.28065 3.79348 5.31015 4.08243 5.25267C4.37138 5.19519 4.6368 5.05332 4.84512 4.845C5.05345 4.63668 5.19532 4.37126 5.25279 4.08231C5.31027 3.79336 5.28077 3.49385 5.16803 3.22167C5.05528 2.94948 4.86436 2.71684 4.6194 2.55316C4.37444 2.38949 4.08644 2.30212 3.79183 2.30212C3.39677 2.30212 3.01789 2.45906 2.73853 2.73841C2.45918 3.01776 2.30225 3.39665 2.30225 3.79171ZM4.46891 3.79171C4.46891 3.92562 4.4292 4.05653 4.3548 4.16787C4.2804 4.27922 4.17466 4.366 4.05094 4.41725C3.92722 4.4685 3.79108 4.48191 3.65974 4.45578C3.5284 4.42966 3.40775 4.36517 3.31306 4.27048C3.21837 4.17579 3.15388 4.05514 3.12776 3.9238C3.10163 3.79246 3.11504 3.65632 3.16629 3.5326C3.21753 3.40888 3.30432 3.30313 3.41566 3.22873C3.52701 3.15433 3.65792 3.11462 3.79183 3.11462C3.9714 3.11462 4.14362 3.18596 4.2706 3.31294C4.39758 3.43991 4.46891 3.61213 4.46891 3.79171Z" fill="black"/>
<path d="M8.66699 3.11462H9.88574V4.33337C9.88574 4.44112 9.92854 4.54445 10.0047 4.62064C10.0809 4.69682 10.1842 4.73962 10.292 4.73962C10.3997 4.73962 10.5031 4.69682 10.5793 4.62064C10.6554 4.54445 10.6982 4.44112 10.6982 4.33337V3.11462H11.917C12.0247 3.11462 12.1281 3.07182 12.2043 2.99564C12.2804 2.91945 12.3232 2.81612 12.3232 2.70837C12.3232 2.60063 12.2804 2.4973 12.2043 2.42111C12.1281 2.34493 12.0247 2.30212 11.917 2.30212H10.6982V1.08337C10.6982 0.97563 10.6554 0.872299 10.5793 0.796112C10.5031 0.719925 10.3997 0.677124 10.292 0.677124C10.1842 0.677124 10.0809 0.719925 10.0047 0.796112C9.92854 0.872299 9.88574 0.97563 9.88574 1.08337V2.30212H8.66699C8.55925 2.30212 8.45592 2.34493 8.37973 2.42111C8.30354 2.4973 8.26074 2.60063 8.26074 2.70837C8.26074 2.81612 8.30354 2.91945 8.37973 2.99564C8.45592 3.07182 8.55925 3.11462 8.66699 3.11462Z" fill="black"/>
</svg>
