<svg width="299" height="282" viewBox="0 0 299 282" fill="none" xmlns="http://www.w3.org/2000/svg">
<path d="M28.6699 281.605H278.261C279.564 279.836 289.891 257.542 285.351 242.242C281.532 229.376 275.234 217.061 276.648 201.276C278.704 178.319 294.581 165.909 286.919 145.351C270.439 101.135 267.752 142.963 242.153 112.682C223.4 90.5003 255.464 80.2854 232.111 47.6045C194.829 -4.56821 75.7875 -23.3998 59.9861 43.9045C46.0607 103.22 -3.08583 66.9715 16.7983 129.226C37.3235 193.489 3.54541 174.525 3.66683 211.465C3.79853 251.589 14.8253 278.398 28.6699 281.605Z" fill="#EEEEFF"/>
<g filter="url(#filter0_d_75_408)">
<path d="M148.216 205.295L160.824 193.284L180.841 214.297L202.074 194.069L213.768 206.345L192.535 226.572L212.657 247.695L200.05 259.705L179.928 238.583L158.694 258.81L147 246.535L168.233 226.307L148.216 205.295Z" fill="#00058C"/>
<path d="M148.216 205.295L160.824 193.284L180.841 214.297L202.074 194.069L213.768 206.345L192.535 226.572L212.657 247.695L200.05 259.705L179.928 238.583L158.694 258.81L147 246.535L168.233 226.307L148.216 205.295Z" stroke="white" stroke-width="12.2946" stroke-miterlimit="2.302" stroke-linejoin="round"/>
</g>
<g filter="url(#filter1_d_75_408)">
<path d="M17.6498 43.9111L26.085 35.8755L39.4777 49.9342L53.6844 36.4004L61.5085 44.6137L47.3019 58.1474L60.7651 72.2799L52.3298 80.3155L38.8667 66.183L24.6601 79.7167L16.8359 71.5035L31.0426 57.9698L17.6498 43.9111Z" fill="#00058C"/>
<path d="M17.6498 43.9111L26.085 35.8755L39.4777 49.9342L53.6844 36.4004L61.5085 44.6137L47.3019 58.1474L60.7651 72.2799L52.3298 80.3155L38.8667 66.183L24.6601 79.7167L16.8359 71.5035L31.0426 57.9698L17.6498 43.9111Z" stroke="white" stroke-width="8.22586" stroke-miterlimit="1.5402" stroke-linejoin="round"/>
</g>
<g filter="url(#filter2_d_75_408)">
<path d="M243.203 18.2194L247.433 14.1902L254.148 21.2394L261.271 14.4534L265.194 18.5717L258.071 25.3576L264.822 32.4439L260.592 36.4731L253.841 29.3868L246.718 36.1728L242.795 32.0546L249.918 25.2686L243.203 18.2194Z" fill="#00058C"/>
<path d="M243.203 18.2194L247.433 14.1902L254.148 21.2394L261.271 14.4534L265.194 18.5717L258.071 25.3576L264.822 32.4439L260.592 36.4731L253.841 29.3868L246.718 36.1728L242.795 32.0546L249.918 25.2686L243.203 18.2194Z" stroke="white" stroke-width="4.1258" stroke-miterlimit="10" stroke-linejoin="round"/>
</g>
<g filter="url(#filter3_d_75_408)">
<path d="M276.931 132.159L285.414 130.876L286.522 138.196L278.039 139.48L276.931 132.159ZM276.154 122.366L276.44 121.927C281.37 120.74 282.96 119.311 282.68 117.459L282.673 117.416C282.452 115.952 281.152 115.223 279.085 115.536C277.061 115.842 274.979 117.215 273.228 119.329L268.062 114.297C270.291 111.272 273.579 108.837 278.531 108.088C284.861 107.13 289.817 109.904 290.664 115.502L290.677 115.588C291.498 121.014 288.233 123.886 283.629 125.772L283.529 128.606L278.319 129.395L276.154 122.366Z" fill="#00058C"/>
<path d="M276.931 132.159L285.414 130.876L286.522 138.196L278.039 139.48L276.931 132.159ZM276.154 122.366L276.44 121.927C281.37 120.74 282.96 119.311 282.68 117.459L282.673 117.416C282.452 115.952 281.152 115.223 279.085 115.536C277.061 115.842 274.979 117.215 273.228 119.329L268.062 114.297C270.291 111.272 273.579 108.837 278.531 108.088C284.861 107.13 289.817 109.904 290.664 115.502L290.677 115.588C291.498 121.014 288.233 123.886 283.629 125.772L283.529 128.606L278.319 129.395L276.154 122.366Z" stroke="white" stroke-width="5.76738" stroke-miterlimit="1.3842" stroke-linejoin="round"/>
</g>
<g filter="url(#filter4_d_75_408)">
<path d="M12.6536 226.875L26.1936 230.493L23.0712 242.177L9.53125 238.559L12.6536 226.875ZM17.8856 211.704L18.6007 211.233C26.7573 212.676 30.0711 211.573 30.8608 208.617L30.8791 208.549C31.5036 206.212 30.0337 204.273 26.7345 203.391C23.5041 202.528 19.4894 203.222 15.4875 205.246L11.0387 194.337C16.3518 191.264 22.8647 189.765 30.7687 191.877C40.8722 194.577 46.4821 201.967 44.0944 210.902L44.0578 211.04C41.7437 219.7 34.9784 221.868 26.8535 221.685L24.8532 225.864L16.5368 223.641L17.8856 211.704Z" fill="#00058C"/>
<path d="M12.6536 226.875L26.1936 230.493L23.0712 242.177L9.53125 238.559L12.6536 226.875ZM17.8856 211.704L18.6007 211.233C26.7573 212.676 30.0711 211.573 30.8608 208.617L30.8791 208.549C31.5036 206.212 30.0337 204.273 26.7345 203.391C23.5041 202.528 19.4894 203.222 15.4875 205.246L11.0387 194.337C16.3518 191.264 22.8647 189.765 30.7687 191.877C40.8722 194.577 46.4821 201.967 44.0944 210.902L44.0578 211.04C41.7437 219.7 34.9784 221.868 26.8535 221.685L24.8532 225.864L16.5368 223.641L17.8856 211.704Z" stroke="white" stroke-width="9.42053" stroke-miterlimit="2.2612" stroke-linejoin="round"/>
</g>
<path fill-rule="evenodd" clip-rule="evenodd" d="M268.35 25.3318C270.066 25.3318 271.711 26.0136 272.924 27.2271C274.139 28.4407 274.82 30.0865 274.82 31.8028C274.82 59.357 274.82 166.755 274.82 194.309C274.82 196.025 274.139 197.671 272.924 198.886C271.711 200.099 270.066 200.779 268.35 200.779C236.526 200.779 96.888 200.779 65.0652 200.779C63.349 200.779 61.7032 200.099 60.4895 198.886C59.276 197.671 58.5942 196.025 58.5942 194.309C58.5942 166.755 58.5942 59.357 58.5942 31.8028C58.5942 30.0865 59.276 28.4407 60.4895 27.2271C61.7032 26.0136 63.349 25.3318 65.0652 25.3318C96.888 25.3318 236.526 25.3318 268.35 25.3318Z" fill="white" stroke="#434D56" stroke-width="2.7" stroke-miterlimit="1.5" stroke-linecap="round" stroke-linejoin="round"/>
<path fill-rule="evenodd" clip-rule="evenodd" d="M268.35 25.3315C271.923 25.3315 274.82 28.2287 274.82 31.8025V46.4189H58.5942V31.8025C58.5942 28.2287 61.4914 25.3315 65.0652 25.3315C96.888 25.3315 236.526 25.3315 268.35 25.3315Z" fill="#00058C"/>
<path d="M262.255 39.4874C264.249 39.4874 265.867 37.8703 265.867 35.8754C265.867 33.8806 264.249 32.2634 262.255 32.2634C260.26 32.2634 258.643 33.8806 258.643 35.8754C258.643 37.8703 260.26 39.4874 262.255 39.4874Z" fill="white"/>
<path d="M245.553 39.4874C247.548 39.4874 249.165 37.8703 249.165 35.8754C249.165 33.8806 247.548 32.2634 245.553 32.2634C243.558 32.2634 241.941 33.8806 241.941 35.8754C241.941 37.8703 243.558 39.4874 245.553 39.4874Z" fill="white"/>
<path d="M228.852 39.4874C230.847 39.4874 232.464 37.8703 232.464 35.8754C232.464 33.8806 230.847 32.2634 228.852 32.2634C226.857 32.2634 225.24 33.8806 225.24 35.8754C225.24 37.8703 226.857 39.4874 228.852 39.4874Z" fill="white"/>
<path d="M152.384 84.0374H114.06V125.756H152.384V84.0374Z" fill="black"/>
<path d="M153.231 101.787L158.925 124.378C158.94 124.443 158.899 124.51 158.83 124.527L117.005 135.061C116.936 135.079 116.868 135.04 116.851 134.976L111.638 114.292L116.264 108.186L120.939 110.748L127.448 105.038L132.297 109.136L136.44 104.027L141.117 107.16L146.165 101.773L149.913 105.8L153.231 101.787Z" fill="#F4F4F4" stroke="#D4E8FC" stroke-width="1.37629" stroke-miterlimit="6.889"/>
<path d="M148.165 82.1682L152.193 98.1483L148.876 102.161L145.128 98.134L140.08 103.521L135.402 100.388L131.259 105.497L126.41 101.399L119.901 107.109L115.226 104.547L110.6 110.653L103.52 82.5599C103.503 82.4958 103.546 82.4284 103.614 82.4105L134.031 74.7505L136.183 83.2926C136.431 84.2764 137.471 84.8619 138.508 84.6006L148.165 82.1682Z" fill="#F4F4F4" stroke="#D4E8FC" stroke-width="1.37629" stroke-miterlimit="6.889"/>
<path d="M137.262 81.7969L135.698 75.5931L146.048 81.0249L139.03 82.7923C138.242 82.9909 137.45 82.5453 137.262 81.7969Z" fill="#CCCCCC"/>
<path d="M221.624 81.7751H184.379V125.922H221.624V81.7751Z" fill="black"/>
<path d="M229.899 94.3741L218.86 135.684C218.842 135.754 218.77 135.795 218.701 135.777L176.176 124.413C176.107 124.394 176.065 124.323 176.084 124.253L190.043 72.0131C190.062 71.9439 190.133 71.9024 190.203 71.9209L221.127 80.1845L218.682 89.3334C218.401 90.3877 219.026 91.4685 220.08 91.7502L229.899 94.3741Z" fill="#F4F4F4" stroke="#D4E8FC" stroke-width="1.37629" stroke-miterlimit="6.889"/>
<path d="M220.403 88.4727L222.179 81.8284L228.602 92.2183L221.467 90.3117C220.665 90.0976 220.189 89.2742 220.403 88.4727Z" fill="#D4E8FC"/>
<path d="M196.503 114.366L204.753 116.571L202.851 123.691L194.601 121.486L196.503 114.366ZM199.691 105.122L200.127 104.835C205.097 105.714 207.116 105.043 207.597 103.242L207.608 103.2C207.989 101.776 207.093 100.594 205.083 100.057C203.115 99.5312 200.668 99.9543 198.23 101.187L195.519 94.54C198.757 92.6679 202.725 91.7541 207.541 93.041C213.698 94.6861 217.116 99.1893 215.661 104.634L215.639 104.717C214.229 109.994 210.106 111.316 205.156 111.204L203.937 113.75L198.869 112.396L199.691 105.122Z" fill="black"/>
<path d="M196.548 81.1957V138.831C196.548 138.928 196.469 139.007 196.373 139.007H137.042C136.945 139.007 136.866 138.928 136.866 138.832V65.9459C136.866 65.8494 136.945 65.7703 137.042 65.7703H180.187V78.5347C180.187 80.0057 181.377 81.1957 182.848 81.1957H196.548Z" fill="#F4F4F4" stroke="#D4E8FC" stroke-width="1.37629" stroke-miterlimit="6.889"/>
<path d="M181.642 77.2077V67.9376L193.622 79.2324H183.667C182.549 79.2324 181.642 78.3259 181.642 77.2077Z" fill="black"/>
<path d="M146.602 93.9746L154.148 86.7864L166.128 99.3626L178.837 87.256L185.836 94.6031L173.127 106.71L185.171 119.352L177.625 126.54L165.582 113.898L152.873 126.004L145.874 118.657L158.583 106.551L146.602 93.9746Z" fill="#0B0B0B"/>
<path d="M184.336 182.824H147.945C144.612 182.824 141.91 180.122 141.91 176.789V176.317C141.91 172.984 144.612 170.282 147.945 170.282H184.336C187.67 170.282 190.372 172.984 190.372 176.317V176.789C190.372 180.122 187.67 182.824 184.336 182.824Z" fill="#289EF3"/>
<path d="M138.862 153.746H140.761V164.641H139.161L133.166 156.89V164.641H131.267V153.746H133.037L138.862 161.279V153.746Z" fill="#394249"/>
<path d="M154.053 161.357C153.773 162.042 153.379 162.641 152.87 163.155C152.362 163.668 151.76 164.076 151.065 164.377C150.369 164.677 149.602 164.828 148.761 164.828C147.921 164.828 147.153 164.68 146.458 164.384C145.762 164.089 145.166 163.687 144.668 163.178C144.17 162.67 143.78 162.073 143.5 161.388C143.22 160.703 143.08 159.977 143.08 159.209C143.08 158.441 143.22 157.715 143.5 157.03C143.78 156.345 144.175 155.746 144.683 155.232C145.192 154.719 145.793 154.312 146.489 154.01C147.184 153.709 147.952 153.559 148.792 153.559C149.633 153.559 150.401 153.707 151.096 154.003C151.791 154.298 152.388 154.701 152.886 155.209C153.384 155.717 153.773 156.314 154.053 156.999C154.333 157.684 154.474 158.41 154.474 159.178C154.473 159.946 154.333 160.672 154.053 161.357ZM152.193 157.707C152.011 157.235 151.757 156.823 151.43 156.47C151.104 156.117 150.712 155.837 150.255 155.629C149.798 155.422 149.3 155.318 148.761 155.318C148.221 155.318 147.726 155.419 147.275 155.621C146.823 155.824 146.437 156.099 146.115 156.446C145.793 156.794 145.542 157.204 145.36 157.676C145.178 158.148 145.088 158.649 145.088 159.178C145.088 159.707 145.179 160.208 145.36 160.68C145.542 161.152 145.796 161.565 146.123 161.917C146.45 162.27 146.841 162.55 147.298 162.758C147.754 162.965 148.253 163.069 148.792 163.069C149.331 163.069 149.827 162.968 150.278 162.766C150.73 162.563 151.116 162.288 151.438 161.941C151.76 161.593 152.011 161.183 152.193 160.711C152.374 160.239 152.465 159.738 152.465 159.209C152.465 158.68 152.375 158.179 152.193 157.707Z" fill="#394249"/>
<path d="M170.894 161.334C170.614 162.003 170.217 162.581 169.703 163.069C169.19 163.557 168.577 163.941 167.867 164.221C167.156 164.501 166.375 164.641 165.524 164.641H161.462V153.746H165.524C166.375 153.746 167.156 153.883 167.867 154.158C168.577 154.433 169.19 154.815 169.703 155.302C170.217 155.79 170.614 156.366 170.894 157.03C171.174 157.694 171.314 158.41 171.314 159.178C171.314 159.946 171.174 160.664 170.894 161.334ZM169.033 157.717C168.851 157.263 168.596 156.87 168.269 156.537C167.941 156.203 167.543 155.943 167.075 155.755C166.606 155.567 166.086 155.473 165.514 155.473H163.361V162.913H165.514C166.086 162.913 166.607 162.823 167.075 162.64C167.543 162.458 167.941 162.202 168.269 161.874C168.597 161.546 168.851 161.155 169.033 160.702C169.216 160.248 169.307 159.751 169.307 159.209C169.307 158.667 169.215 158.17 169.033 157.717Z" fill="#394249"/>
<path d="M182.287 164.641H180.264L179.159 162.011H174.007L172.886 164.641H170.925L175.719 153.668H177.493L182.287 164.641ZM176.575 155.956L174.707 160.314H178.459L176.575 155.956Z" fill="#394249"/>
<path d="M187.44 164.641H185.509V155.52H182.054V153.746H190.895V155.52H187.44V164.641H187.44Z" fill="#394249"/>
<path d="M202.132 164.641H200.109L199.004 162.011H193.852L192.731 164.641H190.77L195.564 153.668H197.338L202.132 164.641ZM196.42 155.956L194.552 160.314H198.303L196.42 155.956Z" fill="#394249"/>
<path d="M155.485 178.355C155.356 178.439 155.218 178.513 155.07 178.576C154.921 178.639 154.762 178.688 154.591 178.724C154.42 178.76 154.242 178.778 154.055 178.778C153.721 178.778 153.418 178.72 153.146 178.604C152.873 178.489 152.641 178.329 152.448 178.125C152.254 177.921 152.105 177.68 151.999 177.402C151.894 177.125 151.841 176.824 151.841 176.5C151.841 176.189 151.895 175.894 152.003 175.617C152.11 175.339 152.262 175.096 152.457 174.888C152.652 174.68 152.884 174.515 153.155 174.393C153.425 174.271 153.721 174.21 154.042 174.21C154.229 174.21 154.399 174.224 154.552 174.251C154.704 174.278 154.845 174.317 154.975 174.367C155.105 174.418 155.228 174.48 155.344 174.554C155.46 174.627 155.573 174.712 155.683 174.809L155.207 175.396C155.126 175.324 155.042 175.259 154.957 175.2C154.872 175.141 154.782 175.092 154.689 175.052C154.595 175.012 154.493 174.981 154.381 174.957C154.269 174.934 154.146 174.923 154.012 174.923C153.817 174.923 153.635 174.964 153.466 175.046C153.297 175.128 153.151 175.241 153.027 175.384C152.903 175.527 152.805 175.694 152.734 175.884C152.663 176.073 152.627 176.276 152.627 176.49C152.627 176.718 152.662 176.929 152.731 177.123C152.8 177.317 152.899 177.484 153.027 177.625C153.155 177.766 153.307 177.877 153.484 177.957C153.661 178.037 153.859 178.077 154.079 178.077C154.282 178.077 154.472 178.047 154.649 177.985C154.826 177.924 154.979 177.843 155.109 177.741V176.91H154.018V176.235H155.835V178.09C155.729 178.183 155.613 178.271 155.485 178.355Z" fill="#F9F9F9"/>
<path d="M160.921 177.371C160.811 177.648 160.657 177.891 160.457 178.099C160.258 178.308 160.022 178.473 159.75 178.595C159.478 178.717 159.177 178.778 158.847 178.778C158.518 178.778 158.217 178.718 157.945 178.598C157.672 178.478 157.439 178.315 157.244 178.109C157.048 177.903 156.896 177.661 156.786 177.383C156.677 177.106 156.622 176.811 156.622 176.5C156.622 176.189 156.677 175.894 156.786 175.616C156.896 175.339 157.05 175.096 157.25 174.888C157.449 174.679 157.685 174.514 157.957 174.392C158.229 174.271 158.53 174.209 158.86 174.209C159.189 174.209 159.49 174.269 159.762 174.389C160.035 174.509 160.268 174.672 160.464 174.878C160.659 175.084 160.811 175.326 160.921 175.604C161.031 175.881 161.086 176.176 161.086 176.487C161.086 176.798 161.031 177.093 160.921 177.371ZM160.192 175.891C160.121 175.7 160.021 175.532 159.893 175.389C159.765 175.246 159.612 175.133 159.433 175.049C159.254 174.965 159.059 174.922 158.847 174.922C158.636 174.922 158.442 174.963 158.265 175.045C158.088 175.128 157.937 175.239 157.811 175.38C157.685 175.521 157.586 175.687 157.515 175.878C157.444 176.07 157.408 176.273 157.408 176.487C157.408 176.702 157.444 176.905 157.515 177.096C157.586 177.288 157.686 177.455 157.814 177.598C157.942 177.741 158.095 177.854 158.274 177.938C158.453 178.022 158.648 178.065 158.86 178.065C159.071 178.065 159.265 178.024 159.442 177.942C159.619 177.859 159.77 177.748 159.896 177.607C160.022 177.466 160.121 177.3 160.192 177.109C160.263 176.917 160.299 176.714 160.299 176.5C160.299 176.285 160.263 176.082 160.192 175.891Z" fill="#F9F9F9"/>
<path d="M166.758 174.589C167.009 174.791 167.135 175.067 167.135 175.417C167.135 175.552 167.118 175.672 167.084 175.777C167.049 175.883 167.005 175.974 166.951 176.052C166.896 176.13 166.832 176.199 166.757 176.257C166.682 176.316 166.607 176.367 166.53 176.409C166.656 176.455 166.77 176.509 166.873 176.57C166.976 176.631 167.065 176.703 167.14 176.787C167.214 176.871 167.272 176.971 167.312 177.086C167.353 177.202 167.373 177.335 167.373 177.486C167.373 177.684 167.336 177.858 167.26 178.009C167.185 178.16 167.079 178.287 166.941 178.39C166.803 178.493 166.636 178.571 166.442 178.623C166.247 178.676 166.031 178.702 165.796 178.702H163.824V174.285H165.735C166.165 174.285 166.506 174.386 166.758 174.589ZM166.172 176.004C166.318 175.904 166.391 175.751 166.391 175.544C166.391 175.362 166.327 175.221 166.2 175.122C166.072 175.023 165.887 174.973 165.643 174.973H164.568V176.153H165.589C165.832 176.153 166.026 176.103 166.172 176.004ZM166.41 177.86C166.556 177.757 166.629 177.604 166.629 177.402C166.629 177.213 166.557 177.066 166.413 176.961C166.269 176.855 166.049 176.803 165.754 176.803H164.568V178.014H165.808C166.064 178.014 166.264 177.963 166.41 177.86Z" fill="#F9F9F9"/>
<path d="M172.312 178.702H171.519L171.086 177.636H169.068L168.629 178.702H167.86L169.739 174.254H170.434L172.312 178.702ZM170.074 175.181L169.342 176.948H170.812L170.074 175.181Z" fill="#F9F9F9"/>
<path d="M175.77 178.321C175.65 178.415 175.521 178.497 175.382 178.566C175.244 178.636 175.093 178.689 174.928 178.724C174.764 178.76 174.581 178.778 174.382 178.778C174.069 178.778 173.781 178.719 173.516 178.601C173.252 178.484 173.023 178.323 172.83 178.119C172.637 177.915 172.486 177.674 172.376 177.396C172.266 177.119 172.211 176.82 172.211 176.5C172.211 176.185 172.265 175.888 172.373 175.611C172.481 175.333 172.632 175.09 172.827 174.882C173.022 174.674 173.254 174.509 173.523 174.39C173.791 174.27 174.088 174.21 174.413 174.21C174.608 174.21 174.786 174.227 174.947 174.26C175.107 174.294 175.255 174.341 175.389 174.402C175.523 174.463 175.647 174.536 175.761 174.62C175.874 174.704 175.982 174.796 176.084 174.897L175.602 175.472C175.431 175.308 175.25 175.175 175.059 175.074C174.868 174.973 174.651 174.923 174.407 174.923C174.203 174.923 174.015 174.964 173.843 175.046C173.67 175.128 173.52 175.239 173.394 175.38C173.268 175.521 173.171 175.686 173.102 175.875C173.033 176.065 172.998 176.269 172.998 176.487C172.998 176.706 173.033 176.911 173.102 177.103C173.171 177.294 173.268 177.461 173.394 177.604C173.52 177.747 173.67 177.86 173.843 177.942C174.015 178.024 174.203 178.065 174.407 178.065C174.667 178.065 174.891 178.013 175.078 177.91C175.265 177.807 175.45 177.667 175.632 177.49L176.114 177.995C176.005 178.117 175.89 178.226 175.77 178.321Z" fill="#F9F9F9"/>
<path d="M180.676 178.702H179.767L178.31 176.714L177.645 177.421V178.702H176.901V174.285H177.645V176.506L179.676 174.285H180.596L178.822 176.184L180.676 178.702Z" fill="#F9F9F9"/>
<path d="M64.4343 85.7837C64.4285 85.7149 64.4075 85.6484 64.3708 85.5898C64.2822 85.4488 64.1165 85.2588 64.0721 85.7229C64.021 86.258 64.6862 88.6069 65.1438 89.423C65.2483 89.6094 65.2063 89.8433 65.0383 89.9753L64.7436 90.2071C64.651 90.2799 64.5864 90.3868 64.5803 90.5044C64.5735 90.6369 64.6441 90.7674 64.9911 90.6922C65.6223 90.5557 66.2085 89.7469 65.8316 89.224C65.4623 88.7113 64.5663 87.3285 64.4343 85.7837Z" fill="#F69D7D"/>
<path d="M65.3565 92.4542C65.3491 92.7362 65.3328 93.0021 65.3093 93.2546C65.0094 96.5812 63.4192 97.4878 60.7053 97.4745C55.6083 97.4479 51.0177 90.39 50.2617 87.2405C48.9299 81.6858 51.0663 81.2941 55.0383 79.1535C63.7469 74.4602 64.2372 82.2645 65.0287 87.9213C65.2826 89.7418 65.3905 91.2346 65.3565 92.4542Z" fill="#FBC0A4"/>
<path d="M55.9287 88.9326C55.8933 89.1556 55.8313 89.3697 55.7382 89.5617C55.7382 89.5617 54.9232 90.2024 54.0255 89.2989C53.9279 89.2 53.8262 89.0906 53.7228 88.9725C52.5622 87.6466 51.1713 85.1822 52.8205 84.2151C52.9756 84.1235 53.1262 84.0541 53.271 84.0039C54.7888 83.4798 55.6497 85.1247 55.6112 86.2482C55.6112 86.2482 55.6112 86.2497 55.6127 86.2512C55.629 86.3428 55.9789 88.2003 55.7855 89.0153C55.7855 89.0153 55.8401 89.0005 55.9287 88.9326Z" fill="#FBC0A4"/>
<path d="M55.9288 88.9326C55.8403 89.0005 55.7856 89.0153 55.7856 89.0153C55.979 88.2003 55.6291 86.3428 55.6128 86.2512C55.638 86.3266 56.1208 87.7647 55.9288 88.9326Z" fill="#FBC0A4"/>
<path d="M53.022 85.5836C52.8793 86.2657 53.2721 86.8663 53.7081 87.4098C54.1626 87.9764 54.3389 88.08 54.5182 88.1837C54.6976 88.2872 54.8608 88.2947 54.9363 88.1018C55.0093 87.9154 54.866 87.7223 54.7532 87.557C54.6403 87.3916 54.2815 87.0836 54.4412 86.9628C54.5155 86.9066 54.6805 86.7679 54.6553 86.6143C54.6225 86.4141 54.6111 86.292 54.5803 86.0915C54.5401 85.8307 54.4388 85.5484 54.3525 85.4064C54.2097 85.1709 53.9734 84.9459 53.6993 84.9712C53.4123 84.9977 53.081 85.3016 53.022 85.5836Z" fill="#F69D7D"/>
<path d="M59.3542 99.571C58.2202 103.682 61.1025 107.321 61.1025 107.321L45.1987 106.84C48.9788 104.287 49.0467 96.1819 49.0467 96.1819C48.6746 93.8888 48.9815 91.9668 51.7411 90.6039C56.1767 88.4128 62.4962 88.0599 63.7499 91.5844C65.3017 95.9505 62.582 95.9092 60.7052 97.4744C60.4262 97.7062 60.1662 97.9735 59.9419 98.2967C59.6968 98.6468 59.4945 99.0646 59.3542 99.571Z" fill="#FBC0A4"/>
<path d="M63.49 76.6582C61.1423 82.3459 57.0418 77.2858 57.1068 82.975C57.16 87.5286 56.6117 87.427 56.2587 87.6973C56.1701 87.7652 55.7931 87.9377 55.7931 87.9377C55.7931 87.2248 55.7765 87.1493 55.6779 86.4596C55.6254 86.093 55.5207 85.7361 55.3575 85.4037C55.0096 84.6954 54.3023 83.6478 53.2707 84.0041C53.1261 84.0543 52.9755 84.1237 52.8204 84.2153C51.1712 85.1824 52.5621 87.6467 53.7227 88.9727C53.1024 91.787 52.8736 95.8533 51.3867 96.5651C47.087 98.6262 45.8304 94.7799 42.6899 87.7029C39.5477 80.6258 40.8682 77.363 42.8612 75.398C45.8745 72.4271 55.6334 74.6491 58.0552 72.0451C61.7262 68.0981 65.8376 70.9706 63.49 76.6582Z" fill="#3E3533"/>
<path d="M60.7054 97.4746C60.4264 97.7064 60.1663 97.9736 59.9421 98.2971C56.5001 97.7374 55.6422 95.0958 55.6142 95.0042C57.7566 97.4508 60.5916 97.4746 60.7024 97.4746L60.7054 97.4746Z" fill="#F69D7D"/>
<path d="M61.1284 70.9192C61.1284 70.9192 64.4103 73.1647 62.0209 78.001C62.0209 78.001 64.8709 73.395 61.1284 70.9192Z" fill="#FAFCFB"/>
<path d="M42.5887 85.6301C42.5887 85.6301 39.7962 76.9648 45.5251 74.8921C45.5251 74.8921 40.4583 76.5042 42.5887 85.6301Z" fill="black"/>
<path d="M57.2366 80.7073C56.5384 80.7377 55.8439 80.8074 55.156 80.9187C54.4672 81.0199 53.7843 81.1591 53.1133 81.3391L52.8613 81.4047L52.6119 81.4795C52.4459 81.5298 52.2779 81.5739 52.1135 81.6293C51.785 81.7408 51.4555 81.8491 51.1356 81.9825C50.8094 82.1004 50.4978 82.2519 50.1811 82.3916C50.0245 82.4652 49.8731 82.5494 49.7191 82.6276C49.5652 82.7069 49.411 82.7856 49.2647 82.8749C48.9671 83.0464 48.6838 83.242 48.4163 83.4566C48.1464 83.6688 47.8966 83.9054 47.6617 84.1558C47.189 84.6557 46.8 85.23 46.4504 85.8288C46.0986 86.4272 45.8019 87.061 45.4359 87.6628C45.2503 87.9613 45.0399 88.2493 44.7844 88.4943C44.5312 88.7414 44.215 88.922 43.8784 89.0154C44.2075 88.8965 44.5028 88.7001 44.7384 88.4482C44.9749 88.1961 45.1652 87.905 45.3324 87.6018C45.6699 86.9959 45.949 86.3539 46.2848 85.7359C46.6151 85.1157 47.0098 84.5213 47.4886 83.9963C47.7256 83.7323 47.985 83.4874 48.2627 83.2658C48.5387 83.0421 48.8308 82.838 49.1374 82.6591C49.2884 82.5648 49.4459 82.4859 49.6031 82.4061C49.7607 82.3272 49.9155 82.2425 50.0754 82.1683C50.3985 82.0281 50.7166 81.8757 51.0487 81.758C51.7059 81.5058 52.3816 81.304 53.0663 81.148C54.4339 80.8323 55.8382 80.6664 57.2366 80.7073Z" fill="black"/>
<path d="M65.3562 92.4589C65.349 92.7337 65.3331 92.9931 65.3105 93.2397C64.8576 93.1798 64.3658 93.1807 64.0466 93.1939C63.608 93.2086 63.3113 93.2381 63.2493 93.1334C63.2213 93.0845 63.2581 93.0078 63.3615 92.9162C63.4649 92.8262 63.6362 92.7258 63.8724 92.6387C64.1057 92.5515 64.4054 92.4836 64.7494 92.4614C64.9074 92.4509 65.1642 92.4479 65.3562 92.4589Z" fill="#3E3533"/>
<path d="M60.4531 85.4371C60.4618 85.4184 60.4714 85.401 60.4809 85.3839C61.0104 84.4272 61.8055 83.8852 62.7828 83.8341C62.8675 83.8293 62.9589 83.8306 63.0632 83.9156C63.2616 84.0776 63.3611 84.3038 63.4714 84.6431C62.265 84.5022 61.2345 84.9092 60.4749 85.8315C60.4032 85.7302 60.4107 85.7187 60.4119 85.615C60.4128 85.5402 60.4307 85.4851 60.4531 85.4371Z" fill="#3E3533"/>
<path d="M61.854 86.7254C61.9626 87.2258 62.3865 87.5585 62.8009 87.4685C63.2152 87.3787 63.463 86.9 63.3544 86.3996C63.2456 85.8991 62.8217 85.5664 62.4073 85.6562C61.993 85.7462 61.7453 86.2249 61.854 86.7254Z" fill="#3E3533"/>
<path d="M78.8432 266.59C78.8432 266.59 78.5841 270.267 78.8431 272.338C79.1021 274.41 71.2826 274.462 71.2826 274.462L71.2826 266.59L78.8432 266.59Z" fill="#FBC0A4"/>
<path d="M70.8721 273.116L70.9673 279.287L70.9762 279.498C70.9717 279.738 71.1643 279.935 71.4054 279.935H75.3436C75.5361 279.935 75.7937 279.828 75.8447 279.643L75.9448 279.385C75.955 279.35 75.9686 279.317 75.9855 279.287C76.0954 279.092 76.3446 279.01 76.5541 279.118C77.1972 279.449 78.4994 279.552 80.3835 279.803C80.995 279.886 81.6698 279.935 82.4024 279.935H90.4226C90.4226 279.935 90.6127 279.909 90.8165 279.803C91.2186 279.596 91.6738 279.082 90.8426 277.857C89.9028 276.471 81.6422 277.898 79.592 271.724C79.592 271.724 79.1719 270.858 78.5526 271.724C77.9716 272.537 72.7461 273.106 71.1439 272.877C70.9989 272.857 70.8699 272.97 70.8721 273.116Z" fill="#323B42"/>
<path d="M70.9668 279.287L70.9758 279.498C70.9713 279.738 71.1638 279.935 71.405 279.935H75.3431C75.5357 279.935 75.7933 279.828 75.8442 279.643L75.9445 279.385C75.9547 279.35 75.9682 279.317 75.9852 279.287H70.9668Z" fill="black"/>
<path d="M80.3834 279.802C80.9948 279.885 81.6698 279.935 82.4024 279.935L90.4226 279.935C90.4226 279.935 90.6128 279.909 90.8165 279.802L80.3834 279.802Z" fill="black"/>
<path d="M39.89 266.59C39.89 266.59 39.631 270.267 39.89 272.338C40.1489 274.41 32.3295 274.462 32.3295 274.462L32.3295 266.59L39.89 266.59Z" fill="#FBC0A4"/>
<path d="M31.9185 273.116L32.0136 279.287L32.0226 279.498C32.0181 279.738 32.2107 279.935 32.4518 279.935H36.39C36.5825 279.935 36.8401 279.828 36.8911 279.643L36.9912 279.385C37.0014 279.35 37.015 279.317 37.0319 279.287C37.1418 279.092 37.391 279.01 37.6005 279.118C38.2436 279.449 39.5458 279.552 41.4298 279.803C42.0414 279.886 42.7161 279.935 43.4488 279.935H51.469C51.469 279.935 51.6591 279.909 51.8629 279.803C52.265 279.596 52.7202 279.082 51.889 277.857C50.9492 276.471 42.6886 277.898 40.6383 271.724C40.6383 271.724 40.2183 270.858 39.599 271.724C39.018 272.537 33.7925 273.106 32.1902 272.877C32.0453 272.857 31.9162 272.97 31.9185 273.116Z" fill="#323B42"/>
<path d="M32.0137 279.287L32.0227 279.498C32.0182 279.738 32.2107 279.935 32.4518 279.935H36.39C36.5826 279.935 36.8402 279.828 36.8911 279.643L36.9914 279.385C37.0015 279.35 37.015 279.317 37.0321 279.287H32.0137Z" fill="black"/>
<path d="M41.4308 279.802C42.0422 279.885 42.7171 279.935 43.4498 279.935L51.47 279.935C51.47 279.935 51.6602 279.909 51.8639 279.802L41.4308 279.802Z" fill="black"/>
<path fill-rule="evenodd" clip-rule="evenodd" d="M61.9721 87.5933C62.8641 88.1144 63.2503 88.3758 63.2503 88.3758C63.2503 88.3758 62.2688 90.2446 61.4376 91.6047C61.3463 91.7533 61.2572 91.8959 61.1719 92.0294C60.9043 92.4447 60.669 92.7711 60.5093 92.9147C60.5093 92.9147 60.0557 92.4458 59.5258 92.0187C59.2204 91.7725 58.89 91.5402 58.6071 91.4198C57.8327 91.0903 56.3949 90.9368 54.8814 90.8296C53.3671 90.7223 52.835 90.089 52.1025 89.6919C51.6049 89.4221 51.4714 89.1803 51.4694 89.0001C51.4692 88.9155 51.4972 88.8443 51.5309 88.7904C51.637 88.6219 52.4809 88.0755 55.2377 89.1949C55.2377 89.1949 53.2542 87.4991 52.4855 87.1969C51.7177 86.8948 50.2543 86.6316 49.5613 86.5028C48.8682 86.3741 48.3549 85.9266 48.8167 85.2487C48.8167 85.2487 47.9742 85.2006 47.9823 84.6845C47.991 84.1693 48.3052 83.8314 48.9456 83.805C48.9456 83.805 48.8955 83.2111 49.8705 83.0843C50.8455 82.9575 51.3881 82.9074 51.3881 82.9074C51.3881 82.9074 51.2835 82.4294 52.6252 82.34C53.4404 82.2855 54.103 82.2081 54.8256 82.3721C55.2926 82.4775 55.7839 82.684 56.3582 83.0612C57.8206 84.0231 58.6005 84.7033 59.364 85.6121C60.1274 86.5216 60.192 86.5761 61.4541 87.2951C61.6432 87.4029 61.8155 87.5017 61.9721 87.5933Z" fill="#FBC0A4"/>
<path fill-rule="evenodd" clip-rule="evenodd" d="M51.6949 89.4123C51.7731 89.2533 51.9324 89.043 52.2158 89.0997C52.6579 89.188 53.07 89.4963 53.0841 89.7084C53.0912 89.8262 52.9646 90.0178 52.8513 90.1648C52.5923 90.0002 52.36 89.8316 52.1024 89.692C51.9224 89.5945 51.7903 89.5008 51.6949 89.4123Z" fill="#FDE6DB"/>
<path fill-rule="evenodd" clip-rule="evenodd" d="M55.3954 87.1157C55.3815 87.0842 55.374 87.0502 55.3601 87.0187C55.3595 87.0177 53.6516 85.8218 52.8159 85.5949C52.0983 85.3999 50.0971 85.2695 49.1842 85.2184C48.9833 85.2071 48.8813 85.2148 48.8813 85.2148C48.8621 85.2258 48.8492 85.245 48.8488 85.2673C48.8476 85.2894 48.8575 85.31 48.8759 85.3227C48.8838 85.3279 48.8914 85.3339 48.9006 85.3369C48.9028 85.3383 51.8906 85.5401 52.7662 85.7766C53.3481 85.9338 54.5469 86.6474 55.2375 87.0842C55.2526 87.0936 55.2677 87.1031 55.2836 87.1127C55.2864 87.115 55.2887 87.1189 55.2928 87.1191C55.3445 87.1208 55.3445 87.1142 55.3954 87.1157Z" fill="#F69D7D"/>
<path fill-rule="evenodd" clip-rule="evenodd" d="M56.6133 86.1188C56.5922 86.093 56.5991 86.0508 56.578 86.025C56.5753 86.0227 54.6278 84.7391 53.8227 84.4029C53.6904 84.3478 53.372 84.2129 51.3414 83.9752C50.2823 83.8507 48.9994 83.7483 48.9974 83.7495C48.9965 83.7501 48.9955 83.7507 48.9945 83.7513C48.9757 83.7608 48.963 83.7792 48.9612 83.8003C48.9586 83.8212 48.9677 83.8416 48.9844 83.8548C48.9934 83.8619 49.0017 83.8689 49.0115 83.8729C49.013 83.8733 50.5603 84.0429 52.0088 84.2615C53.5715 84.497 53.7046 84.5937 53.757 84.6163C53.797 84.6326 54.1889 84.7812 55.86 85.7463C56.056 85.8599 56.3388 86.0251 56.5033 86.122C56.5068 86.1245 56.5092 86.1284 56.5133 86.1285C56.5634 86.1266 56.5632 86.1207 56.6133 86.1188Z" fill="#F69D7D"/>
<path fill-rule="evenodd" clip-rule="evenodd" d="M57.4652 85.1101C57.4462 85.0823 57.4508 85.0429 57.4319 85.0151C57.4295 85.0112 55.5942 83.7291 54.6819 83.4117C54.6614 83.4043 53.9722 83.1259 51.7807 82.8758C51.5631 82.8514 51.4761 82.8452 51.4759 82.846C51.4751 82.8458 51.4741 82.8464 51.4739 82.8472C51.4539 82.8581 51.4418 82.8775 51.4396 82.9001C51.4384 82.9222 51.4474 82.9434 51.4654 82.9577C51.4711 82.9616 51.476 82.9652 51.4827 82.9685C51.4982 82.9764 53.8533 83.2826 54.7898 83.6778C54.8377 83.6985 55.5265 83.9718 57.1532 84.9833C57.3589 85.1117 57.3568 85.117 57.3644 85.1163C57.3977 85.1153 57.4318 85.1111 57.4652 85.1101Z" fill="#F69D7D"/>
<path fill-rule="evenodd" clip-rule="evenodd" d="M59.5257 92.0185L58.4719 92.0117C58.4719 92.0117 54.873 91.3858 53.8977 91.3156C52.9224 91.2451 51.8107 90.1223 51.4082 88.9839L51.4695 88.9999C51.4709 89.1799 51.6047 89.4217 52.1025 89.6917C52.8346 90.0887 53.3672 90.722 54.8809 90.8292C56.3948 90.9364 57.8326 91.09 58.6069 91.4195C58.8899 91.54 59.2205 91.7723 59.5257 92.0185Z" fill="black" fill-opacity="0.15"/>
<path fill-rule="evenodd" clip-rule="evenodd" d="M61.9719 87.5935C61.8152 87.5021 61.6428 87.4025 61.4542 87.295C60.1919 86.5759 60.1274 86.5215 59.3639 85.6123C58.6003 84.7032 57.8205 84.023 56.358 83.0612C55.7841 82.6839 55.2923 82.4778 54.8257 82.3721C57.0528 82.4993 59.4497 85.0341 59.8712 85.7367C60.3005 86.4522 62.0177 87.3756 62.0177 87.3756L61.9719 87.5935Z" fill="black" fill-opacity="0.15"/>
<path d="M79.5125 269.136C79.5244 269.376 79.3324 269.575 79.0918 269.575H70.4702C70.2649 269.575 70.0893 269.429 70.0538 269.227C69.3553 265.19 62.8069 227.354 61.8265 220.223C60.8844 213.368 56.4327 190.22 55.6383 186.099C55.6073 185.935 55.3755 185.929 55.3326 186.09C54.4689 189.374 52.539 200.808 49.394 219.941C46.2031 239.355 41.0101 266.193 40.4092 269.283C40.3766 269.453 40.2275 269.575 40.0533 269.575H31.572C31.3623 269.575 31.1956 269.4 31.2087 269.189C31.8938 258.781 33.8651 219.928 34.7023 204.212C35.4051 191.011 35.9943 182.611 36.1744 180.129C36.2128 179.617 36.232 179.357 36.232 179.357C36.232 179.357 74.9988 153.42 75.8595 172.19C75.9334 173.814 76.0043 175.388 76.0722 176.921C76.084 177.188 76.0958 177.455 76.1077 177.719C76.7971 193.48 77.1427 204.95 77.6492 222.295C78.1733 240.182 79.3428 265.503 79.5125 269.136Z" fill="#6B7277"/>
<path d="M55.6385 186.099C55.6075 185.935 55.3757 185.929 55.3328 186.09C55.2074 183.794 55.0656 182.01 54.9135 181.752C53.5285 179.395 54.1886 175.79 54.3037 178.188C54.4189 180.585 55.2856 181.192 55.361 181.944C55.4362 182.694 55.6385 186.099 55.6385 186.099Z" fill="black"/>
<path d="M47.2433 101.937C47.2433 101.937 48.0242 99.0892 48.4416 98.8589C48.8591 98.6286 58.7638 98.9679 59.7716 101.092C60.7794 103.217 59.3086 105.722 59.3086 105.722L47.2433 101.937Z" fill="#D49207"/>
<path d="M76.4607 176.729C76.3603 176.826 76.2304 176.894 76.0841 176.919C71.8981 177.632 48.2719 181.47 36.2321 179.357C36.0712 179.329 35.9294 179.248 35.8262 179.134C35.7036 179 35.6327 178.818 35.64 178.622C35.7876 174.783 36.5481 156.125 36.0712 150.008C35.5795 143.725 33.4475 115.731 33.1491 111.815C33.1269 111.529 33.2465 111.248 33.471 111.068C34.5844 110.167 38.0866 107.433 40.8109 106.34C43.6931 105.184 46.3096 102.42 46.9016 101.724C46.9844 101.63 47.259 101.439 47.3845 101.445C48.3177 101.496 52.1523 101.72 55.3446 102.259C58.9828 102.875 58.9095 102.012 61.057 103.065C65.0605 105.029 73.01 105.387 73.9064 104.673C74.9023 103.879 74.1604 112.811 73.8103 118.046C73.6768 120.045 73.8103 121.877 73.8103 121.877L76.6792 176.16C76.6955 176.38 76.6098 176.585 76.4607 176.729Z" fill="#434D56"/>
<path d="M73.7648 118.997C73.7208 120.445 73.7939 121.641 73.8079 121.846C70.1778 121.511 65.9651 120.792 63.9051 119.277L70.7217 117.638C71.5772 118.056 72.7911 118.506 73.7648 118.997Z" fill="black"/>
<path d="M63.033 119.372C69.4466 121.151 76.7585 118.928 76.7585 118.928L74.0683 104.566C74.0683 104.566 67.6971 104.007 63.7186 103.924C53.4776 103.706 51.4707 116.164 63.033 119.372Z" fill="#434D56"/>
<path fill-rule="evenodd" clip-rule="evenodd" d="M76.7582 118.927C76.7582 118.927 88.2536 115.374 89.8851 110.521C91.5168 105.667 88.5392 102.363 84.297 99.6707C80.0549 96.9787 67.259 88.8617 61.8282 87.0669C61.8282 87.0669 58.8064 91.0753 58.3984 92.299C58.3984 92.299 69.7353 99.9563 75.4867 104.321C75.4867 104.321 75.0844 104.609 74.0646 104.568C74.0646 104.568 72.935 112.608 76.7582 118.927Z" fill="#434D56"/>
<path d="M36.1517 154.658C36.1517 154.658 29.0171 149.667 29.0171 144.063C29.0171 138.459 31.1381 113.192 33.1481 111.816C35.1583 110.439 41.0601 151.435 36.1517 154.658Z" fill="#434D56"/>
<path d="M36.1518 154.658C36.1518 154.658 36.2331 136.002 34.2373 118.576L36.1518 154.658Z" fill="black"/>
<path d="M76.1076 177.719C76.0425 177.755 75.9703 177.78 75.8934 177.793C73.4453 178.21 64.2893 179.705 54.7419 180.43C54.6179 180.439 54.4924 180.45 54.3669 180.458C47.8538 180.94 41.1991 181.051 36.4003 180.209C36.3191 180.194 36.2437 180.168 36.1743 180.129C36.2127 179.617 36.2319 179.357 36.2319 179.357C41.0278 180.199 47.6604 180.097 54.1706 179.623C54.2768 179.615 54.3831 179.608 54.488 179.599C64.1977 178.876 73.5634 177.349 76.0722 176.921C76.0839 177.188 76.0957 177.455 76.1076 177.719Z" fill="black"/>
<path d="M243.861 211.371C243.861 211.371 242.927 210.181 242.872 207.267C242.817 204.354 245.785 205.563 246.719 208.696C246.719 208.696 246.28 203.035 247.819 199.572C249.358 196.109 252.326 194.918 252.766 206.058C252.766 206.058 253.206 203.365 254.965 202.87C256.724 202.375 258.153 202.754 254.965 211.469L243.861 211.371Z" fill="#E19A06"/>
<path d="M245.045 210.774C245.045 210.774 243.999 207.371 245.182 209.441C246.365 211.511 248.096 212.042 248.439 208.253C248.782 204.465 249.262 196.459 250.205 203.025C251.148 209.591 251.885 211.151 251.885 211.151C251.885 211.151 255.434 203.076 254.439 206.625C253.445 210.174 252.519 211.469 252.519 211.469C252.519 211.469 245.936 212.642 245.045 210.774Z" fill="white"/>
<path d="M242.244 213.931L243.865 224.109H255.518L257.261 213.16L257.332 212.714H242.051L242.244 213.931Z" fill="#434D56"/>
<path d="M257.281 210.029H242.101C241.409 210.029 240.848 210.59 240.848 211.283V211.461C240.848 212.153 241.409 212.714 242.101 212.714H257.281C257.973 212.714 258.534 212.153 258.534 211.461V211.283C258.534 210.59 257.973 210.029 257.281 210.029Z" fill="#434D56"/>
<path d="M257.332 212.714L257.261 213.16L242.245 213.931L242.051 212.714L257.332 212.714Z" fill="black"/>
<path d="M217.638 214.025C218.068 216.163 219.377 218.3 221.379 218.847L220.798 212.434C220.783 212.402 220.771 212.367 220.762 212.331C220.76 212.323 220.559 211.464 219.871 211.04C219.444 210.776 218.899 210.725 218.249 210.885C217.585 211.05 217.319 212.428 217.638 214.025ZM218.001 209.884C218.937 209.652 219.752 209.748 220.425 210.168C220.487 210.207 220.545 210.248 220.602 210.29L220.556 209.772C220.513 209.295 220.772 208.867 221.17 208.669C221.319 208.594 221.49 208.551 221.67 208.551H230.301C230.669 208.551 230.992 208.728 231.193 208.998C231.357 209.211 231.441 209.483 231.415 209.772L230.16 223.599C230.119 224.046 229.738 224.383 229.289 224.371H222.681C222.233 224.383 221.852 224.046 221.811 223.599L221.479 219.935C218.848 219.45 217.152 216.844 216.627 214.228C216.168 211.946 216.72 210.2 218.001 209.884Z" fill="#434D56"/>
<path d="M217.638 214.026C218.068 216.164 219.377 218.3 221.379 218.847L220.798 212.435C220.783 212.402 220.771 212.368 220.762 212.331C220.76 212.323 220.559 211.465 219.871 211.04C219.444 210.777 218.899 210.725 218.249 210.885C217.585 211.05 217.319 212.428 217.638 214.026ZM218.001 209.884C218.937 209.652 219.752 209.748 220.425 210.168C220.487 210.207 220.545 210.249 220.602 210.29L220.556 209.772C220.513 209.296 220.772 208.867 221.17 208.67C220.946 223.841 230.16 223.599 230.16 223.599C230.119 224.046 229.738 224.383 229.289 224.371H222.681C222.233 224.383 221.852 224.046 221.811 223.599L221.479 219.935C218.848 219.45 217.152 216.845 216.627 214.229C216.168 211.946 216.72 210.2 218.001 209.884Z" fill="#020202"/>
<path d="M228.17 218.169C230.15 219.208 230.972 211.6 231.193 208.998C230.992 208.728 230.669 208.551 230.301 208.551L229.94 208.551C230.057 214.717 226.629 217.361 228.17 218.169Z" fill="white"/>
<path d="M225.147 229.487L221.402 254.119L216.121 279.997C216.073 280.312 215.926 280.527 215.76 280.527H214.076C213.856 280.527 213.683 280.156 213.7 279.724L214.762 251.161L215.578 231.509L225.147 229.487Z" fill="#434D56"/>
<path d="M225.147 229.487L221.403 254.119C219.27 251.849 216.882 251.159 214.762 251.161L215.578 231.509L225.147 229.487Z" fill="#333333" fill-opacity="0.5"/>
<path d="M252.937 229.487L256.681 254.119L261.708 279.997C261.756 280.312 261.903 280.527 262.069 280.527H263.753C263.973 280.527 264.147 280.156 264.129 279.724L263.321 251.161L262.506 231.509L252.937 229.487Z" fill="#434D56"/>
<path d="M252.937 229.486L256.681 254.119C258.814 251.849 261.202 251.159 263.321 251.161L262.506 231.508L252.937 229.486Z" fill="#333333" fill-opacity="0.5"/>
<path d="M273.754 227.694V230.247L271.715 232.566C271.101 233.266 270.484 233.967 269.696 234.863H208.387L207.04 233.33C206.181 232.353 205.435 231.507 204.388 230.315C204.37 230.293 204.349 230.269 204.33 230.247V227.694H273.754Z" fill="#D49207"/>
<path d="M273.754 227.694V230.247L271.715 232.566L207.04 233.33C206.181 232.353 205.435 231.507 204.388 230.315C204.37 230.293 204.349 230.269 204.33 230.247V227.694H273.754Z" fill="black"/>
<path d="M274.567 231.279H203.517C203.002 231.279 202.583 230.861 202.583 230.345V225.043C202.583 224.527 203.002 224.109 203.517 224.109H274.567C275.083 224.109 275.501 224.527 275.501 225.043V230.345C275.501 230.861 275.083 231.279 274.567 231.279Z" fill="#D49207"/>
<path fill-rule="evenodd" clip-rule="evenodd" d="M124.194 254.117C124.194 254.117 120.269 250.139 124.125 242.873C127.979 235.606 134.621 232.852 134.621 232.852C134.621 232.852 134.651 240.547 130.973 246.79C126.43 254.499 124.194 254.117 124.194 254.117Z" fill="#D49207"/>
<path fill-rule="evenodd" clip-rule="evenodd" d="M118.805 242.326C118.805 242.326 125.314 236.059 116.284 224.616C109.065 215.469 103.162 215.417 103.162 215.417C103.162 215.417 105.065 224.73 108.451 232.063C113.904 243.868 118.805 242.326 118.805 242.326Z" fill="#D49207"/>
<path fill-rule="evenodd" clip-rule="evenodd" d="M115.36 256.254C115.36 256.254 111.872 257.893 108.847 250.96C105.822 244.027 106.494 241.59 103.973 236.296C103.973 236.296 112.026 237.355 114.855 243.229C119.855 253.608 115.36 256.254 115.36 256.254Z" fill="#E19A06"/>
<path fill-rule="evenodd" clip-rule="evenodd" d="M130.505 237.958C130.607 238.016 130.725 237.947 130.666 238.051C123.287 251.032 124.625 256.429 123.433 261.048C123.427 261.077 123.011 262.632 122.314 264.7C121.437 267.3 120.698 268.992 120.696 268.992C120.598 269.092 120.522 269.23 120.391 269.278C120.388 269.28 119.971 269.268 119.97 269.267C119.873 269.165 119.733 269.092 119.684 268.961C119.577 268.682 119.636 268.672 119.761 268.4C120.831 266.069 121.746 263.413 121.898 262.971C122.557 261.06 122.706 260.432 122.76 260.206C123.41 257.458 123.369 254.002 125.288 248.601C126.814 244.299 128.985 240.467 130.505 237.958Z" fill="#364049"/>
<path fill-rule="evenodd" clip-rule="evenodd" d="M109.239 242.781C109.303 242.821 109.38 242.834 109.443 242.874C109.466 242.887 109.836 243.424 109.871 243.472C113.633 248.921 115.695 256.234 116.88 260.022C116.906 260.108 117.865 262.814 117.694 267.764C117.671 268.407 117.636 268.824 117.635 268.824C117.569 268.948 117.543 269.106 117.433 269.195C117.432 269.196 117.028 269.317 117.026 269.317C116.904 269.25 116.746 269.225 116.657 269.116C116.48 268.897 116.517 268.873 116.546 268.594C116.756 266.618 116.684 264.772 116.671 264.439C116.563 261.693 116.107 260.341 115.879 259.507C114.813 255.614 112.915 248.375 109.305 243.07C109.262 243.007 109.261 243.007 109.261 243.004C109.235 242.894 109.265 242.89 109.239 242.781Z" fill="#364049"/>
<path fill-rule="evenodd" clip-rule="evenodd" d="M108.527 221.076C112.969 226.293 117.399 233.367 119.439 244.131C119.605 245.005 120.256 248.356 120.65 254.303C121.168 262.104 119.708 267.921 119.271 269.421C119.234 269.549 119.199 269.658 119.199 269.658C119.104 269.773 119.039 269.93 118.906 269.998C118.903 269.999 118.457 270.033 118.456 270.032C118.342 269.936 118.184 269.872 118.116 269.74C117.972 269.457 118.036 269.44 118.131 269.138C118.588 267.694 120.128 262.018 119.767 254.353C119.304 244.535 117.801 232.71 108.49 221.341C108.379 221.207 108.375 221.208 108.376 221.204C108.392 221.095 108.511 221.184 108.527 221.076Z" fill="#364049"/>
<path fill-rule="evenodd" clip-rule="evenodd" d="M119.277 245.306C119.277 245.306 122.945 244.293 124.382 236.423C125.817 228.552 126.136 222.968 125.87 219.884C125.604 216.799 125.87 210.63 125.87 210.63C125.87 210.63 119.484 214.587 117.202 226.743C114.277 242.326 119.277 245.306 119.277 245.306Z" fill="#E19A06"/>
<path fill-rule="evenodd" clip-rule="evenodd" d="M122.091 221.121C122.235 221.145 122.34 221.014 122.317 221.158C121.644 225.451 119.396 239.733 119.182 253.084C119.058 260.894 120 268.66 120.23 270.365C120.256 270.56 120.151 270.696 120.132 270.719C120.131 270.722 119.816 270.905 119.815 270.903C119.697 270.873 119.557 270.882 119.461 270.808C119.265 270.657 119.293 270.629 119.264 270.386C119.134 269.294 118.213 261.097 118.484 252.859C118.909 240.097 121.067 227.063 122.091 221.121Z" fill="#364049"/>
<path d="M111.377 280.527H126.283L129.743 263.91L108.811 263.666L111.377 280.527Z" fill="#434D56"/>
<path d="M107.101 260.327V263.482C107.101 264.168 107.657 264.724 108.343 264.724H129.929C130.615 264.724 131.171 264.168 131.171 263.482V260.327H107.101Z" fill="#434D56"/>
<path fill-rule="evenodd" clip-rule="evenodd" d="M109.044 264.725H129.468C129.468 264.725 117.765 265.522 109.044 264.725Z" fill="#364049"/>
<path d="M147.879 280.748L112.059 194.21L110.348 194.48L146.168 281.019L147.879 280.748Z" fill="#1D2227"/>
<defs>
<filter id="filter0_d_75_408" x="136.853" y="187.137" width="87.063" height="86.7155" filterUnits="userSpaceOnUse" color-interpolation-filters="sRGB">
<feFlood flood-opacity="0" result="BackgroundImageFix"/>
<feColorMatrix in="SourceAlpha" type="matrix" values="0 0 0 0 0 0 0 0 0 0 0 0 0 0 0 0 0 0 127 0" result="hardAlpha"/>
<feOffset dy="4"/>
<feGaussianBlur stdDeviation="2"/>
<feComposite in2="hardAlpha" operator="out"/>
<feColorMatrix type="matrix" values="0 0 0 0 0 0 0 0 0 0 0 0 0 0 0 0 0 0 0.25 0"/>
<feBlend mode="normal" in2="BackgroundImageFix" result="effect1_dropShadow_75_408"/>
<feBlend mode="normal" in="SourceGraphic" in2="effect1_dropShadow_75_408" result="shape"/>
</filter>
<filter id="filter1_d_75_408" x="8.72314" y="31.7626" width="60.8984" height="60.6659" filterUnits="userSpaceOnUse" color-interpolation-filters="sRGB">
<feFlood flood-opacity="0" result="BackgroundImageFix"/>
<feColorMatrix in="SourceAlpha" type="matrix" values="0 0 0 0 0 0 0 0 0 0 0 0 0 0 0 0 0 0 127 0" result="hardAlpha"/>
<feOffset dy="4"/>
<feGaussianBlur stdDeviation="2"/>
<feComposite in2="hardAlpha" operator="out"/>
<feColorMatrix type="matrix" values="0 0 0 0 0 0 0 0 0 0 0 0 0 0 0 0 0 0 0.25 0"/>
<feBlend mode="normal" in2="BackgroundImageFix" result="effect1_dropShadow_75_408"/>
<feBlend mode="normal" in="SourceGraphic" in2="effect1_dropShadow_75_408" result="shape"/>
</filter>
<filter id="filter2_d_75_408" x="236.732" y="12.1273" width="34.5254" height="34.4087" filterUnits="userSpaceOnUse" color-interpolation-filters="sRGB">
<feFlood flood-opacity="0" result="BackgroundImageFix"/>
<feColorMatrix in="SourceAlpha" type="matrix" values="0 0 0 0 0 0 0 0 0 0 0 0 0 0 0 0 0 0 127 0" result="hardAlpha"/>
<feOffset dy="4"/>
<feGaussianBlur stdDeviation="2"/>
<feComposite in2="hardAlpha" operator="out"/>
<feColorMatrix type="matrix" values="0 0 0 0 0 0 0 0 0 0 0 0 0 0 0 0 0 0 0.25 0"/>
<feBlend mode="normal" in2="BackgroundImageFix" result="effect1_dropShadow_75_408"/>
<feBlend mode="normal" in="SourceGraphic" in2="effect1_dropShadow_75_408" result="shape"/>
</filter>
<filter id="filter3_d_75_408" x="261.178" y="105.018" width="36.5093" height="45.3457" filterUnits="userSpaceOnUse" color-interpolation-filters="sRGB">
<feFlood flood-opacity="0" result="BackgroundImageFix"/>
<feColorMatrix in="SourceAlpha" type="matrix" values="0 0 0 0 0 0 0 0 0 0 0 0 0 0 0 0 0 0 127 0" result="hardAlpha"/>
<feOffset dy="4"/>
<feGaussianBlur stdDeviation="2"/>
<feComposite in2="hardAlpha" operator="out"/>
<feColorMatrix type="matrix" values="0 0 0 0 0 0 0 0 0 0 0 0 0 0 0 0 0 0 0.25 0"/>
<feBlend mode="normal" in2="BackgroundImageFix" result="effect1_dropShadow_75_408"/>
<feBlend mode="normal" in="SourceGraphic" in2="effect1_dropShadow_75_408" result="shape"/>
</filter>
<filter id="filter4_d_75_408" x="0.819824" y="186.181" width="52.5312" height="68.7064" filterUnits="userSpaceOnUse" color-interpolation-filters="sRGB">
<feFlood flood-opacity="0" result="BackgroundImageFix"/>
<feColorMatrix in="SourceAlpha" type="matrix" values="0 0 0 0 0 0 0 0 0 0 0 0 0 0 0 0 0 0 127 0" result="hardAlpha"/>
<feOffset dy="4"/>
<feGaussianBlur stdDeviation="2"/>
<feComposite in2="hardAlpha" operator="out"/>
<feColorMatrix type="matrix" values="0 0 0 0 0 0 0 0 0 0 0 0 0 0 0 0 0 0 0.25 0"/>
<feBlend mode="normal" in2="BackgroundImageFix" result="effect1_dropShadow_75_408"/>
<feBlend mode="normal" in="SourceGraphic" in2="effect1_dropShadow_75_408" result="shape"/>
</filter>
</defs>
</svg>
