<svg width="13" height="13" viewBox="0 0 13 13" fill="none" xmlns="http://www.w3.org/2000/svg">
<path fill-rule="evenodd" clip-rule="evenodd" d="M5.68766 10.9759H1.59808C1.56937 10.9759 1.54175 10.964 1.5217 10.9439C1.50112 10.9233 1.48975 10.8963 1.48975 10.8675C1.48975 10.867 1.48975 10.0821 1.48975 10.0821C1.48975 9.632 1.81095 9.2355 2.30604 8.89858C3.19004 8.29517 4.62058 7.91492 6.22933 7.91492C6.49475 7.91492 6.75529 7.92575 7.00987 7.94579C7.23304 7.96367 7.42912 7.79683 7.447 7.57313C7.46433 7.34942 7.2975 7.15387 7.07379 7.136C6.79862 7.11379 6.51696 7.10242 6.22933 7.10242C4.42991 7.10242 2.83687 7.55254 1.84779 8.22692C1.09325 8.7415 0.677246 9.39529 0.677246 10.0816V10.8675C0.677246 11.1113 0.774204 11.3458 0.946996 11.5186C1.11979 11.6909 1.35379 11.7884 1.59808 11.7878C2.69008 11.7884 5.68766 11.7884 5.68766 11.7884C5.91191 11.7884 6.09391 11.6058 6.09391 11.3821C6.09391 11.1579 5.91191 10.9759 5.68766 10.9759Z" fill="black"/>
<path fill-rule="evenodd" clip-rule="evenodd" d="M6.22917 0.677124C4.58467 0.677124 3.25 2.01179 3.25 3.65629C3.25 5.30079 4.58467 6.63546 6.22917 6.63546C7.87367 6.63546 9.20833 5.30079 9.20833 3.65629C9.20833 2.01179 7.87367 0.677124 6.22917 0.677124ZM6.22917 1.48962C7.42517 1.48962 8.39583 2.46029 8.39583 3.65629C8.39583 4.85229 7.42517 5.82296 6.22917 5.82296C5.03317 5.82296 4.0625 4.85229 4.0625 3.65629C4.0625 2.46029 5.03317 1.48962 6.22917 1.48962Z" fill="black"/>
<path fill-rule="evenodd" clip-rule="evenodd" d="M9.83266 10.9461C10.4892 11.0446 11.183 10.841 11.6884 10.3356C12.5345 9.48951 12.5345 8.11585 11.6884 7.2703C10.8429 6.42422 9.4692 6.42422 8.62312 7.2703C8.11774 7.77568 7.91408 8.46956 8.01266 9.1266L6.75491 10.3838C6.67853 10.4602 6.63574 10.5636 6.63574 10.6714V11.9167C6.63574 12.141 6.81774 12.323 7.04199 12.323H8.28728C8.39508 12.323 8.49853 12.2802 8.57491 12.2038L9.83266 10.9461ZM9.80449 10.1119C9.66474 10.0745 9.51524 10.1146 9.41287 10.217L8.11937 11.5105H7.44824V10.8393L8.74174 9.54585C8.84412 9.44347 8.8842 9.29397 8.84683 9.15422C8.72658 8.70193 8.84303 8.19926 9.19783 7.84447C9.72649 7.3158 10.585 7.3158 11.1142 7.84447C11.6429 8.37368 11.6429 9.23222 11.1142 9.76089C10.7594 10.1157 10.2568 10.2321 9.80449 10.1119Z" fill="black"/>
<path fill-rule="evenodd" clip-rule="evenodd" d="M9.7402 9.21816C9.51108 8.98904 9.51108 8.61691 9.7402 8.38779C9.96933 8.15866 10.3415 8.15866 10.5706 8.38779C10.7997 8.61691 10.7997 8.98904 10.5706 9.21816C10.3415 9.44729 9.96933 9.44729 9.7402 9.21816Z" fill="black"/>
</svg>
