<svg width="12" height="12" viewBox="0 0 12 12" fill="none" xmlns="http://www.w3.org/2000/svg">
<mask id="path-1-inside-1_880_421" fill="white">
<path d="M5.825 1.36523V2.27539H4.91484V1.36523H5.825ZM4.91484 6.7124V8.00937H5.825V6.7124H4.91484ZM7.64531 11.65V10.7398H6.73516V9.82969H5.825V11.65H7.64531ZM9.46562 4.89209H6.73516V5.80225H9.46562V4.89209ZM9.46562 6.7124H10.7398V5.80225H9.46562V6.7124ZM9.46562 8.00937V8.91953H11.65V6.7124H10.7398V8.00937H9.46562ZM6.73516 0H5.825V1.36523H6.73516V0ZM5.825 4.0957H6.73516V2.27539H5.825V3.18555H4.91484V5.80225H5.825V4.0957ZM0 4.89209V6.7124H0.910156V5.80225H2.27539V4.89209H0ZM6.73516 6.7124V5.80225H5.825V6.7124H6.73516ZM8.55547 7.62256H9.46562V6.7124H8.55547V7.62256ZM10.7398 5.80225H11.65V4.89209H10.7398V5.80225ZM7.64531 6.7124H6.73516V8.00937H5.825V8.91953H7.64531V6.7124ZM4.91484 9.82969H5.825V8.91953H4.91484V9.82969ZM7.64531 8.91953V9.82969H9.46562V8.91953H7.64531ZM10.3758 10.7398V9.82969H9.46562V10.7398H10.3758ZM11.65 11.65V10.7398H10.3758V11.65H11.65ZM8.55547 11.65H9.46562V10.7398H8.55547V11.65ZM4.0957 5.80225V4.89209H3.18555V5.80225H2.27539V6.7124H4.91484V5.80225H4.0957ZM4.0957 4.0957H0V0H4.0957V4.0957ZM3.18555 0.910156H0.910156V3.18555H3.18555V0.910156ZM2.50293 1.59277H1.59277V2.50293H2.50293V1.59277ZM11.65 0V4.0957H7.5543V0H11.65ZM10.7398 0.910156H8.46445V3.18555H10.7398V0.910156ZM10.0572 1.59277H9.14707V2.50293H10.0572V1.59277ZM0 7.5543H4.0957V11.65H0V7.5543ZM0.910156 10.7398H3.18555V8.46445H0.910156V10.7398ZM1.59277 10.0572H2.50293V9.14707H1.59277V10.0572Z"/>
</mask>
<path d="M5.825 1.36523V2.27539H4.91484V1.36523H5.825ZM4.91484 6.7124V8.00937H5.825V6.7124H4.91484ZM7.64531 11.65V10.7398H6.73516V9.82969H5.825V11.65H7.64531ZM9.46562 4.89209H6.73516V5.80225H9.46562V4.89209ZM9.46562 6.7124H10.7398V5.80225H9.46562V6.7124ZM9.46562 8.00937V8.91953H11.65V6.7124H10.7398V8.00937H9.46562ZM6.73516 0H5.825V1.36523H6.73516V0ZM5.825 4.0957H6.73516V2.27539H5.825V3.18555H4.91484V5.80225H5.825V4.0957ZM0 4.89209V6.7124H0.910156V5.80225H2.27539V4.89209H0ZM6.73516 6.7124V5.80225H5.825V6.7124H6.73516ZM8.55547 7.62256H9.46562V6.7124H8.55547V7.62256ZM10.7398 5.80225H11.65V4.89209H10.7398V5.80225ZM7.64531 6.7124H6.73516V8.00937H5.825V8.91953H7.64531V6.7124ZM4.91484 9.82969H5.825V8.91953H4.91484V9.82969ZM7.64531 8.91953V9.82969H9.46562V8.91953H7.64531ZM10.3758 10.7398V9.82969H9.46562V10.7398H10.3758ZM11.65 11.65V10.7398H10.3758V11.65H11.65ZM8.55547 11.65H9.46562V10.7398H8.55547V11.65ZM4.0957 5.80225V4.89209H3.18555V5.80225H2.27539V6.7124H4.91484V5.80225H4.0957ZM4.0957 4.0957H0V0H4.0957V4.0957ZM3.18555 0.910156H0.910156V3.18555H3.18555V0.910156ZM2.50293 1.59277H1.59277V2.50293H2.50293V1.59277ZM11.65 0V4.0957H7.5543V0H11.65ZM10.7398 0.910156H8.46445V3.18555H10.7398V0.910156ZM10.0572 1.59277H9.14707V2.50293H10.0572V1.59277ZM0 7.5543H4.0957V11.65H0V7.5543ZM0.910156 10.7398H3.18555V8.46445H0.910156V10.7398ZM1.59277 10.0572H2.50293V9.14707H1.59277V10.0572Z" fill="black"/>
<path d="M4.91484 2.27539H3.91484V3.27539H4.91484V2.27539ZM4.91484 1.36523V0.365234H3.91484V1.36523H4.91484ZM4.91484 8.00937H3.91484V9.00937H4.91484V8.00937ZM7.64531 11.65V12.65H8.64531V11.65H7.64531ZM7.64531 10.7398H8.64531V9.73984H7.64531V10.7398ZM6.73516 10.7398H5.73516V11.7398H6.73516V10.7398ZM6.73516 9.82969H7.73516V8.82969H6.73516V9.82969ZM5.825 11.65H4.825V12.65H5.825V11.65ZM9.46562 4.89209H10.4656V3.89209H9.46562V4.89209ZM6.73516 4.89209V3.89209H5.73516V4.89209H6.73516ZM9.46562 8.00937V7.00937H8.46562V8.00937H9.46562ZM11.65 8.91953V9.91953H12.65V8.91953H11.65ZM11.65 6.7124H12.65V5.7124H11.65V6.7124ZM10.7398 8.00937V9.00937H11.7398V8.00937H10.7398ZM6.73516 0H7.73516V-1H6.73516V0ZM5.825 0V-1H4.825V0H5.825ZM6.73516 1.36523V2.36523H7.73516V1.36523H6.73516ZM5.825 4.0957V3.0957H4.825V4.0957H5.825ZM6.73516 4.0957V5.0957H7.73516V4.0957H6.73516ZM6.73516 2.27539H7.73516V1.27539H6.73516V2.27539ZM5.825 3.18555V4.18555H6.825V3.18555H5.825ZM4.91484 3.18555V2.18555H3.91484V3.18555H4.91484ZM0 4.89209V3.89209H-1V4.89209H0ZM0 6.7124H-1V7.7124H0V6.7124ZM0.910156 6.7124V7.7124H1.91016V6.7124H0.910156ZM0.910156 5.80225V4.80225H-0.0898438V5.80225H0.910156ZM2.27539 4.89209H3.27539V3.89209H2.27539V4.89209ZM8.55547 7.62256H7.55547V8.62256H8.55547V7.62256ZM9.46562 7.62256V8.62256H10.4656V7.62256H9.46562ZM8.55547 6.7124V5.7124H7.55547V6.7124H8.55547ZM11.65 5.80225V6.80225H12.65V5.80225H11.65ZM11.65 4.89209H12.65V3.89209H11.65V4.89209ZM10.7398 4.89209V3.89209H9.73984V4.89209H10.7398ZM7.64531 6.7124H8.64531V5.7124H7.64531V6.7124ZM6.73516 8.00937V9.00937H7.73516V8.00937H6.73516ZM4.91484 9.82969H3.91484V10.8297H4.91484V9.82969ZM4.91484 8.91953V7.91953H3.91484V8.91953H4.91484ZM7.64531 9.82969H6.64531V10.8297H7.64531V9.82969ZM10.3758 9.82969H11.3758V8.82969H10.3758V9.82969ZM11.65 11.65V12.65H12.65V11.65H11.65ZM11.65 10.7398H12.65V9.73984H11.65V10.7398ZM10.3758 11.65H9.37578V12.65H10.3758V11.65ZM8.55547 11.65H7.55547V12.65H8.55547V11.65ZM9.46562 11.65V12.65H10.4656V11.65H9.46562ZM8.55547 10.7398V9.73984H7.55547V10.7398H8.55547ZM4.0957 5.80225H3.0957V6.80225H4.0957V5.80225ZM4.0957 4.89209H5.0957V3.89209H4.0957V4.89209ZM3.18555 4.89209V3.89209H2.18555V4.89209H3.18555ZM3.18555 5.80225V6.80225H4.18555V5.80225H3.18555ZM2.27539 6.7124H1.27539V7.7124H2.27539V6.7124ZM4.0957 4.0957V5.0957H5.0957V4.0957H4.0957ZM0 4.0957H-1V5.0957H0V4.0957ZM0 0V-1H-1V0H0ZM4.0957 0H5.0957V-1H4.0957V0ZM3.18555 0.910156H4.18555V-0.0898438H3.18555V0.910156ZM0.910156 0.910156V-0.0898438H-0.0898438V0.910156H0.910156ZM0.910156 3.18555H-0.0898438V4.18555H0.910156V3.18555ZM3.18555 3.18555V4.18555H4.18555V3.18555H3.18555ZM2.50293 1.59277H3.50293V0.592773H2.50293V1.59277ZM1.59277 1.59277V0.592773H0.592773V1.59277H1.59277ZM1.59277 2.50293H0.592773V3.50293H1.59277V2.50293ZM2.50293 2.50293V3.50293H3.50293V2.50293H2.50293ZM11.65 0H12.65V-1H11.65V0ZM11.65 4.0957V5.0957H12.65V4.0957H11.65ZM7.5543 4.0957H6.5543V5.0957H7.5543V4.0957ZM7.5543 0V-1H6.5543V0H7.5543ZM10.7398 0.910156H11.7398V-0.0898438H10.7398V0.910156ZM8.46445 0.910156V-0.0898438H7.46445V0.910156H8.46445ZM8.46445 3.18555H7.46445V4.18555H8.46445V3.18555ZM10.7398 3.18555V4.18555H11.7398V3.18555H10.7398ZM10.0572 1.59277H11.0572V0.592773H10.0572V1.59277ZM9.14707 1.59277V0.592773H8.14707V1.59277H9.14707ZM9.14707 2.50293H8.14707V3.50293H9.14707V2.50293ZM10.0572 2.50293V3.50293H11.0572V2.50293H10.0572ZM0 7.5543V6.5543H-1V7.5543H0ZM4.0957 7.5543H5.0957V6.5543H4.0957V7.5543ZM4.0957 11.65V12.65H5.0957V11.65H4.0957ZM0 11.65H-1V12.65H0V11.65ZM0.910156 10.7398H-0.0898438V11.7398H0.910156V10.7398ZM3.18555 10.7398V11.7398H4.18555V10.7398H3.18555ZM3.18555 8.46445H4.18555V7.46445H3.18555V8.46445ZM0.910156 8.46445V7.46445H-0.0898438V8.46445H0.910156ZM1.59277 10.0572H0.592773V11.0572H1.59277V10.0572ZM2.50293 10.0572V11.0572H3.50293V10.0572H2.50293ZM2.50293 9.14707H3.50293V8.14707H2.50293V9.14707ZM1.59277 9.14707V8.14707H0.592773V9.14707H1.59277ZM5.825 1.36523H4.825V2.27539H5.825H6.825V1.36523H5.825ZM5.825 2.27539V1.27539H4.91484V2.27539V3.27539H5.825V2.27539ZM4.91484 2.27539H5.91484V1.36523H4.91484H3.91484V2.27539H4.91484ZM4.91484 1.36523V2.36523H5.825V1.36523V0.365234H4.91484V1.36523ZM4.91484 6.7124H3.91484V8.00937H4.91484H5.91484V6.7124H4.91484ZM4.91484 8.00937V9.00937H5.825V8.00937V7.00937H4.91484V8.00937ZM5.825 8.00937H6.825V6.7124H5.825H4.825V8.00937H5.825ZM5.825 6.7124V5.7124H4.91484V6.7124V7.7124H5.825V6.7124ZM7.64531 11.65H8.64531V10.7398H7.64531H6.64531V11.65H7.64531ZM7.64531 10.7398V9.73984H6.73516V10.7398V11.7398H7.64531V10.7398ZM6.73516 10.7398H7.73516V9.82969H6.73516H5.73516V10.7398H6.73516ZM6.73516 9.82969V8.82969H5.825V9.82969V10.8297H6.73516V9.82969ZM5.825 9.82969H4.825V11.65H5.825H6.825V9.82969H5.825ZM5.825 11.65V12.65H7.64531V11.65V10.65H5.825V11.65ZM9.46562 4.89209V3.89209H6.73516V4.89209V5.89209H9.46562V4.89209ZM6.73516 4.89209H5.73516V5.80225H6.73516H7.73516V4.89209H6.73516ZM6.73516 5.80225V6.80225H9.46562V5.80225V4.80225H6.73516V5.80225ZM9.46562 5.80225H10.4656V4.89209H9.46562H8.46562V5.80225H9.46562ZM9.46562 6.7124V7.7124H10.7398V6.7124V5.7124H9.46562V6.7124ZM10.7398 6.7124H11.7398V5.80225H10.7398H9.73984V6.7124H10.7398ZM10.7398 5.80225V4.80225H9.46562V5.80225V6.80225H10.7398V5.80225ZM9.46562 5.80225H8.46562V6.7124H9.46562H10.4656V5.80225H9.46562ZM9.46562 8.00937H8.46562V8.91953H9.46562H10.4656V8.00937H9.46562ZM9.46562 8.91953V9.91953H11.65V8.91953V7.91953H9.46562V8.91953ZM11.65 8.91953H12.65V6.7124H11.65H10.65V8.91953H11.65ZM11.65 6.7124V5.7124H10.7398V6.7124V7.7124H11.65V6.7124ZM10.7398 6.7124H9.73984V8.00937H10.7398H11.7398V6.7124H10.7398ZM10.7398 8.00937V7.00937H9.46562V8.00937V9.00937H10.7398V8.00937ZM6.73516 0V-1H5.825V0V1H6.73516V0ZM5.825 0H4.825V1.36523H5.825H6.825V0H5.825ZM5.825 1.36523V2.36523H6.73516V1.36523V0.365234H5.825V1.36523ZM6.73516 1.36523H7.73516V0H6.73516H5.73516V1.36523H6.73516ZM5.825 4.0957V5.0957H6.73516V4.0957V3.0957H5.825V4.0957ZM6.73516 4.0957H7.73516V2.27539H6.73516H5.73516V4.0957H6.73516ZM6.73516 2.27539V1.27539H5.825V2.27539V3.27539H6.73516V2.27539ZM5.825 2.27539H4.825V3.18555H5.825H6.825V2.27539H5.825ZM5.825 3.18555V2.18555H4.91484V3.18555V4.18555H5.825V3.18555ZM4.91484 3.18555H3.91484V5.80225H4.91484H5.91484V3.18555H4.91484ZM4.91484 5.80225V6.80225H5.825V5.80225V4.80225H4.91484V5.80225ZM5.825 5.80225H6.825V4.0957H5.825H4.825V5.80225H5.825ZM0 4.89209H-1V6.7124H0H1V4.89209H0ZM0 6.7124V7.7124H0.910156V6.7124V5.7124H0V6.7124ZM0.910156 6.7124H1.91016V5.80225H0.910156H-0.0898438V6.7124H0.910156ZM0.910156 5.80225V6.80225H2.27539V5.80225V4.80225H0.910156V5.80225ZM2.27539 5.80225H3.27539V4.89209H2.27539H1.27539V5.80225H2.27539ZM2.27539 4.89209V3.89209H0V4.89209V5.89209H2.27539V4.89209ZM6.73516 6.7124H7.73516V5.80225H6.73516H5.73516V6.7124H6.73516ZM6.73516 5.80225V4.80225H5.825V5.80225V6.80225H6.73516V5.80225ZM5.825 5.80225H4.825V6.7124H5.825H6.825V5.80225H5.825ZM5.825 6.7124V7.7124H6.73516V6.7124V5.7124H5.825V6.7124ZM8.55547 7.62256V8.62256H9.46562V7.62256V6.62256H8.55547V7.62256ZM9.46562 7.62256H10.4656V6.7124H9.46562H8.46562V7.62256H9.46562ZM9.46562 6.7124V5.7124H8.55547V6.7124V7.7124H9.46562V6.7124ZM8.55547 6.7124H7.55547V7.62256H8.55547H9.55547V6.7124H8.55547ZM10.7398 5.80225V6.80225H11.65V5.80225V4.80225H10.7398V5.80225ZM11.65 5.80225H12.65V4.89209H11.65H10.65V5.80225H11.65ZM11.65 4.89209V3.89209H10.7398V4.89209V5.89209H11.65V4.89209ZM10.7398 4.89209H9.73984V5.80225H10.7398H11.7398V4.89209H10.7398ZM7.64531 6.7124V5.7124H6.73516V6.7124V7.7124H7.64531V6.7124ZM6.73516 6.7124H5.73516V8.00937H6.73516H7.73516V6.7124H6.73516ZM6.73516 8.00937V7.00937H5.825V8.00937V9.00937H6.73516V8.00937ZM5.825 8.00937H4.825V8.91953H5.825H6.825V8.00937H5.825ZM5.825 8.91953V9.91953H7.64531V8.91953V7.91953H5.825V8.91953ZM7.64531 8.91953H8.64531V6.7124H7.64531H6.64531V8.91953H7.64531ZM4.91484 9.82969V10.8297H5.825V9.82969V8.82969H4.91484V9.82969ZM5.825 9.82969H6.825V8.91953H5.825H4.825V9.82969H5.825ZM5.825 8.91953V7.91953H4.91484V8.91953V9.91953H5.825V8.91953ZM4.91484 8.91953H3.91484V9.82969H4.91484H5.91484V8.91953H4.91484ZM7.64531 8.91953H6.64531V9.82969H7.64531H8.64531V8.91953H7.64531ZM7.64531 9.82969V10.8297H9.46562V9.82969V8.82969H7.64531V9.82969ZM9.46562 9.82969H10.4656V8.91953H9.46562H8.46562V9.82969H9.46562ZM9.46562 8.91953V7.91953H7.64531V8.91953V9.91953H9.46562V8.91953ZM10.3758 10.7398H11.3758V9.82969H10.3758H9.37578V10.7398H10.3758ZM10.3758 9.82969V8.82969H9.46562V9.82969V10.8297H10.3758V9.82969ZM9.46562 9.82969H8.46562V10.7398H9.46562H10.4656V9.82969H9.46562ZM9.46562 10.7398V11.7398H10.3758V10.7398V9.73984H9.46562V10.7398ZM11.65 11.65H12.65V10.7398H11.65H10.65V11.65H11.65ZM11.65 10.7398V9.73984H10.3758V10.7398V11.7398H11.65V10.7398ZM10.3758 10.7398H9.37578V11.65H10.3758H11.3758V10.7398H10.3758ZM10.3758 11.65V12.65H11.65V11.65V10.65H10.3758V11.65ZM8.55547 11.65V12.65H9.46562V11.65V10.65H8.55547V11.65ZM9.46562 11.65H10.4656V10.7398H9.46562H8.46562V11.65H9.46562ZM9.46562 10.7398V9.73984H8.55547V10.7398V11.7398H9.46562V10.7398ZM8.55547 10.7398H7.55547V11.65H8.55547H9.55547V10.7398H8.55547ZM4.0957 5.80225H5.0957V4.89209H4.0957H3.0957V5.80225H4.0957ZM4.0957 4.89209V3.89209H3.18555V4.89209V5.89209H4.0957V4.89209ZM3.18555 4.89209H2.18555V5.80225H3.18555H4.18555V4.89209H3.18555ZM3.18555 5.80225V4.80225H2.27539V5.80225V6.80225H3.18555V5.80225ZM2.27539 5.80225H1.27539V6.7124H2.27539H3.27539V5.80225H2.27539ZM2.27539 6.7124V7.7124H4.91484V6.7124V5.7124H2.27539V6.7124ZM4.91484 6.7124H5.91484V5.80225H4.91484H3.91484V6.7124H4.91484ZM4.91484 5.80225V4.80225H4.0957V5.80225V6.80225H4.91484V5.80225ZM4.0957 4.0957V3.0957H0V4.0957V5.0957H4.0957V4.0957ZM0 4.0957H1V0H0H-1V4.0957H0ZM0 0V1H4.0957V0V-1H0V0ZM4.0957 0H3.0957V4.0957H4.0957H5.0957V0H4.0957ZM3.18555 0.910156V-0.0898438H0.910156V0.910156V1.91016H3.18555V0.910156ZM0.910156 0.910156H-0.0898438V3.18555H0.910156H1.91016V0.910156H0.910156ZM0.910156 3.18555V4.18555H3.18555V3.18555V2.18555H0.910156V3.18555ZM3.18555 3.18555H4.18555V0.910156H3.18555H2.18555V3.18555H3.18555ZM2.50293 1.59277V0.592773H1.59277V1.59277V2.59277H2.50293V1.59277ZM1.59277 1.59277H0.592773V2.50293H1.59277H2.59277V1.59277H1.59277ZM1.59277 2.50293V3.50293H2.50293V2.50293V1.50293H1.59277V2.50293ZM2.50293 2.50293H3.50293V1.59277H2.50293H1.50293V2.50293H2.50293ZM11.65 0H10.65V4.0957H11.65H12.65V0H11.65ZM11.65 4.0957V3.0957H7.5543V4.0957V5.0957H11.65V4.0957ZM7.5543 4.0957H8.5543V0H7.5543H6.5543V4.0957H7.5543ZM7.5543 0V1H11.65V0V-1H7.5543V0ZM10.7398 0.910156V-0.0898438H8.46445V0.910156V1.91016H10.7398V0.910156ZM8.46445 0.910156H7.46445V3.18555H8.46445H9.46445V0.910156H8.46445ZM8.46445 3.18555V4.18555H10.7398V3.18555V2.18555H8.46445V3.18555ZM10.7398 3.18555H11.7398V0.910156H10.7398H9.73984V3.18555H10.7398ZM10.0572 1.59277V0.592773H9.14707V1.59277V2.59277H10.0572V1.59277ZM9.14707 1.59277H8.14707V2.50293H9.14707H10.1471V1.59277H9.14707ZM9.14707 2.50293V3.50293H10.0572V2.50293V1.50293H9.14707V2.50293ZM10.0572 2.50293H11.0572V1.59277H10.0572H9.05723V2.50293H10.0572ZM0 7.5543V8.5543H4.0957V7.5543V6.5543H0V7.5543ZM4.0957 7.5543H3.0957V11.65H4.0957H5.0957V7.5543H4.0957ZM4.0957 11.65V10.65H0V11.65V12.65H4.0957V11.65ZM0 11.65H1V7.5543H0H-1V11.65H0ZM0.910156 10.7398V11.7398H3.18555V10.7398V9.73984H0.910156V10.7398ZM3.18555 10.7398H4.18555V8.46445H3.18555H2.18555V10.7398H3.18555ZM3.18555 8.46445V7.46445H0.910156V8.46445V9.46445H3.18555V8.46445ZM0.910156 8.46445H-0.0898438V10.7398H0.910156H1.91016V8.46445H0.910156ZM1.59277 10.0572V11.0572H2.50293V10.0572V9.05723H1.59277V10.0572ZM2.50293 10.0572H3.50293V9.14707H2.50293H1.50293V10.0572H2.50293ZM2.50293 9.14707V8.14707H1.59277V9.14707V10.1471H2.50293V9.14707ZM1.59277 9.14707H0.592773V10.0572H1.59277H2.59277V9.14707H1.59277Z" fill="black" mask="url(#path-1-inside-1_880_421)"/>
</svg>
