<svg width="13" height="13" viewBox="0 0 13 13" fill="none" xmlns="http://www.w3.org/2000/svg">
<path d="M12.6661 1.16458C12.3514 0.747343 11.8711 0.508068 11.3485 0.508068H11.1273V0.381119C11.1273 0.170788 10.9567 0.000269531 10.7464 0.000269531C10.5361 0.000269531 10.3656 0.170788 10.3656 0.381119V1.39672C10.3656 1.60705 10.5361 1.77756 10.7464 1.77756C10.9567 1.77756 11.1273 1.60705 11.1273 1.39672V1.26977H11.3485C11.6299 1.26977 11.8885 1.39862 12.058 1.62327C12.2274 1.84792 12.2803 2.13196 12.203 2.40254L11.1921 5.94042C10.9101 6.92771 9.99591 7.61722 8.96912 7.61722C7.94233 7.61722 7.02819 6.92768 6.7461 5.94042L5.73531 2.40251C5.65799 2.13193 5.71086 1.84789 5.88031 1.62324C6.04976 1.39857 6.30836 1.26974 6.58975 1.26974H6.81098V1.39669C6.81098 1.60702 6.98149 1.77754 7.19182 1.77754C7.40215 1.77754 7.57267 1.60702 7.57267 1.39669V0.381093C7.57267 0.170763 7.40215 0.000244141 7.19182 0.000244141C6.98149 0.000244141 6.81098 0.170763 6.81098 0.381093V0.508043H6.58975C6.06715 0.508043 5.5869 0.747343 5.27219 1.16455C4.95746 1.58178 4.85933 2.10926 5.00291 2.61175L6.01373 6.14963C6.19872 6.79708 6.58064 7.3536 7.11819 7.7591C7.23341 7.84601 7.35358 7.92358 7.47754 7.99269L8.5883 10.6144V10.8893C8.5883 11.6331 7.98318 12.2382 7.23938 12.2382C6.49558 12.2382 5.89046 11.6331 5.89046 10.8893V8.27736C5.89046 7.07337 4.91092 6.09383 3.70693 6.09383C2.50294 6.09383 1.5234 7.07337 1.5234 8.27736V9.17893C0.655263 9.35585 0 10.1252 0 11.0449C0 12.0949 0.854244 12.9491 1.90424 12.9491C2.95425 12.9491 3.80849 12.0949 3.80849 11.0449C3.80849 10.1253 3.15323 9.35588 2.28509 9.17893V8.27736C2.28509 7.49337 2.92294 6.85553 3.70693 6.85553C4.49092 6.85553 5.12877 7.49337 5.12877 8.27736V10.8893C5.12877 12.0531 6.07558 12.9999 7.23938 12.9999C8.40318 12.9999 9.34999 12.0531 9.34999 10.8893V10.6144L10.4608 7.99269C10.5847 7.92358 10.7049 7.84601 10.8201 7.7591C11.3577 7.35363 11.7396 6.79708 11.9246 6.14963L12.9354 2.61175C13.079 2.10928 12.9808 1.58178 12.6661 1.16458ZM3.04679 11.0449C3.04679 11.6749 2.53425 12.1874 1.90424 12.1874C1.27424 12.1874 0.761698 11.6749 0.761698 11.0449C0.761698 10.4149 1.27424 9.90232 1.90424 9.90232C2.53425 9.90232 3.04679 10.4149 3.04679 11.0449ZM8.96915 9.5608L8.44987 8.33515C8.61991 8.36397 8.79337 8.37892 8.96917 8.37892C9.14497 8.37892 9.31841 8.36397 9.48845 8.33515L8.96915 9.5608Z" fill="black"/>
<path d="M1.9043 11.4257C2.11464 11.4257 2.28516 11.2551 2.28516 11.0448C2.28516 10.8345 2.11464 10.6639 1.9043 10.6639C1.69395 10.6639 1.52344 10.8345 1.52344 11.0448C1.52344 11.2551 1.69395 11.4257 1.9043 11.4257Z" fill="black"/>
</svg>
