<svg width="13" height="13" viewBox="0 0 13 13" fill="none" xmlns="http://www.w3.org/2000/svg">
<path d="M10.1347 1.7821C10.0842 1.7316 10.0243 1.69154 9.9583 1.6642C9.89231 1.63687 9.82159 1.6228 9.75016 1.6228C9.60592 1.6228 9.46758 1.6801 9.36558 1.7821C9.26358 1.8841 9.20628 2.02244 9.20628 2.16669C9.20628 2.31093 9.26358 2.44927 9.36558 2.55127L10.0697 3.25002H1.62516C1.4815 3.25002 1.34373 3.30709 1.24215 3.40867C1.14056 3.51025 1.0835 3.64803 1.0835 3.79169C1.0835 3.93534 1.14056 4.07312 1.24215 4.1747C1.34373 4.27628 1.4815 4.33335 1.62516 4.33335H10.0697L9.36558 5.0321C9.31481 5.08246 9.27451 5.14237 9.24701 5.20837C9.21951 5.27438 9.20536 5.34518 9.20536 5.41669C9.20536 5.48819 9.21951 5.55899 9.24701 5.625C9.27451 5.69101 9.31481 5.75091 9.36558 5.80127C9.41594 5.85204 9.47584 5.89234 9.54185 5.91984C9.60786 5.94734 9.67866 5.96149 9.75016 5.96149C9.82167 5.96149 9.89247 5.94734 9.95848 5.91984C10.0245 5.89234 10.0844 5.85204 10.1347 5.80127L11.7597 4.17627C11.8105 4.12591 11.8508 4.06601 11.8783 4C11.9058 3.93399 11.92 3.86319 11.92 3.79169C11.92 3.72018 11.9058 3.64938 11.8783 3.58337C11.8508 3.51737 11.8105 3.45746 11.7597 3.4071L10.1347 1.7821Z" fill="black"/>
<path d="M11.3749 8.66664H2.9303L3.63447 7.96789C3.73647 7.8659 3.79377 7.72756 3.79377 7.58331C3.79377 7.43906 3.73647 7.30073 3.63447 7.19873C3.53247 7.09673 3.39413 7.03943 3.24989 7.03943C3.10564 7.03943 2.9673 7.09673 2.8653 7.19873L1.2403 8.82373C1.18953 8.87408 1.14924 8.93399 1.12174 9C1.09424 9.06601 1.08008 9.13681 1.08008 9.20831C1.08008 9.27982 1.09424 9.35062 1.12174 9.41662C1.14924 9.48263 1.18953 9.54254 1.2403 9.59289L2.8653 11.2179C2.91566 11.2687 2.97557 11.309 3.04157 11.3365C3.10758 11.364 3.17838 11.3781 3.24989 11.3781C3.32139 11.3781 3.39219 11.364 3.4582 11.3365C3.52421 11.309 3.58411 11.2687 3.63447 11.2179C3.68524 11.1675 3.72554 11.1076 3.75304 11.0416C3.78053 10.9756 3.79469 10.9048 3.79469 10.8333C3.79469 10.7618 3.78053 10.691 3.75304 10.625C3.72554 10.559 3.68524 10.4991 3.63447 10.4487L2.9303 9.74998H11.3749C11.5185 9.74998 11.6563 9.69291 11.7579 9.59133C11.8595 9.48975 11.9166 9.35197 11.9166 9.20831C11.9166 9.06465 11.8595 8.92688 11.7579 8.82529C11.6563 8.72371 11.5185 8.66664 11.3749 8.66664Z" fill="black"/>
</svg>
